<?xml version="1.0" standalone="no"?>
<!DOCTYPE svg PUBLIC "-//W3C//DTD SVG 20010904//EN"
 "http://www.w3.org/TR/2001/REC-SVG-20010904/DTD/svg10.dtd">
<svg version="1.0" xmlns="http://www.w3.org/2000/svg"
 width="600.000000pt" height="600.000000pt" viewBox="0 0 600.000000 600.000000"
 preserveAspectRatio="xMidYMid meet">
<metadata>
Created by potrace 1.14, written by Peter Selinger 2001-2017
</metadata>
<g transform="translate(0.000000,600.000000) scale(0.100000,-0.100000)"
fill="#000000" stroke="none">
<path d="M2175 5650 c-4 -6 -10 -8 -15 -5 -5 3 -12 0 -16 -7 -4 -7 -3 -10 1
-5 10 8 46 -43 39 -55 -3 -4 1 -5 9 -3 8 4 13 -2 14 -17 1 -79 3 -89 16 -82 7
5 6 0 -3 -11 -8 -10 -10 -16 -3 -12 6 4 15 2 19 -4 4 -8 3 -9 -4 -5 -7 4 -12
3 -12 -3 0 -5 4 -12 10 -16 5 -3 6 -13 3 -22 -5 -12 -3 -14 7 -8 8 5 11 4 6
-3 -7 -12 -36 -5 -36 8 0 5 6 11 13 14 6 3 1 3 -13 -1 -23 -5 -24 -5 -10 12
14 17 14 17 -7 4 -14 -8 -18 -16 -11 -20 5 -4 6 -9 2 -11 -5 -3 -3 -3 4 -1 8
1 12 -3 9 -9 -2 -7 -10 -12 -16 -10 -7 1 -10 -2 -6 -8 3 -6 11 -8 16 -5 16 11
9 -7 -8 -21 -16 -13 -16 -14 7 -11 21 2 24 -2 22 -22 -3 -16 0 -21 9 -16 8 5
10 4 5 -4 -6 -9 -14 -8 -32 4 -13 8 -24 11 -24 5 0 -5 5 -10 10 -10 6 0 10 -5
10 -11 0 -5 -4 -7 -10 -4 -5 3 -10 1 -10 -5 0 -6 -6 -8 -12 -4 -7 4 -10 4 -6
-1 4 -4 2 -15 -5 -23 -10 -13 -9 -14 2 -7 10 6 12 4 6 -6 -5 -8 -4 -11 1 -6 5
5 9 14 9 20 0 5 5 12 11 14 7 2 11 -4 10 -14 0 -10 5 -17 12 -15 8 1 11 -2 7
-8 -5 -8 -12 -7 -23 2 -13 11 -15 10 -9 -5 4 -12 3 -16 -4 -11 -6 4 -15 0 -21
-7 -7 -11 -8 -9 -6 6 2 13 -2 19 -12 17 -12 -3 -12 -1 -3 9 8 8 9 18 2 31 -5
10 -7 18 -4 18 4 0 0 7 -8 15 -9 8 -13 24 -10 35 3 11 0 20 -6 20 -12 0 -10
27 3 49 6 9 5 12 -1 8 -6 -4 -19 1 -30 11 -10 9 -13 13 -6 8 10 -6 12 -4 7 8
-3 9 -10 16 -15 16 -5 0 -9 5 -9 11 0 5 5 7 12 3 7 -4 8 -3 4 4 -4 6 -14 8
-24 5 -9 -3 -14 -2 -9 2 4 5 0 19 -8 32 -15 22 -9 31 11 16 5 -5 -2 4 -18 19
-17 17 -22 28 -15 31 7 2 1 2 -12 0 -19 -3 -22 -1 -14 9 8 10 5 21 -14 43
l-26 30 17 -28 c18 -29 18 -29 -6 -23 l-23 7 24 -14 c18 -11 20 -16 10 -20
-11 -4 -11 -6 -1 -6 7 -1 10 -5 7 -11 -3 -5 -2 -10 2 -10 10 0 12 -11 17 -85
2 -27 -1 -59 -7 -70 -9 -18 -8 -18 5 -7 13 10 18 10 24 1 5 -8 3 -9 -6 -4 -9
5 -10 2 -5 -14 4 -12 2 -21 -4 -21 -6 0 -11 -4 -11 -10 0 -5 6 -7 14 -4 7 3
16 -2 19 -10 4 -11 1 -16 -11 -16 -13 0 -12 -3 6 -16 15 -10 20 -20 14 -27 -5
-7 -12 -22 -15 -35 -4 -19 -3 -21 9 -11 17 14 19 -2 2 -19 -9 -9 -9 -12 2 -12
21 0 2 -14 -25 -17 -19 -3 -23 0 -19 12 3 8 11 12 17 8 6 -4 7 -1 1 8 -5 8 -9
21 -9 30 0 9 -5 22 -11 30 -6 8 -10 29 -9 47 0 17 -3 32 -7 32 -4 0 -8 -6 -8
-14 0 -8 -6 -16 -12 -19 -10 -3 -8 -9 4 -23 16 -19 16 -20 0 -20 -9 -1 -24 -3
-32 -6 -8 -3 -12 -3 -7 -1 4 3 -3 14 -15 25 -13 11 -17 17 -10 13 19 -10 14
13 -8 35 -23 23 -26 34 -7 25 6 -4 4 0 -5 8 -10 8 -14 18 -10 23 4 4 -1 2 -11
-5 -15 -12 -17 -12 -11 4 5 13 4 16 -4 11 -16 -9 -15 7 0 22 16 16 -4 16 -21
0 -11 -11 -12 -10 -6 1 6 10 4 13 -6 9 -10 -4 -15 1 -17 15 -1 17 1 19 8 7 8
-13 10 -12 10 4 0 14 -5 17 -21 13 -16 -4 -18 -3 -8 9 9 11 7 14 -12 15 -13 1
-30 1 -36 0 -7 -1 -13 3 -13 8 0 5 11 8 24 5 14 -2 27 0 31 6 4 6 -1 7 -11 3
-13 -5 -15 -3 -9 7 5 9 4 11 -4 6 -6 -4 -14 -1 -17 8 -5 12 -10 13 -24 4 -16
-10 -16 -14 -4 -33 8 -12 11 -24 8 -28 -4 -3 6 -4 22 -1 21 3 25 2 14 -5 -15
-10 -23 -64 -8 -55 4 3 5 11 2 17 -4 7 -3 9 1 4 5 -4 10 -16 12 -27 2 -15 -1
-18 -14 -13 -15 6 -16 5 -3 -9 10 -11 19 -13 27 -7 7 7 14 6 19 -2 4 -8 3 -9
-4 -5 -8 5 -12 -4 -12 -28 0 -20 5 -36 11 -36 5 0 7 -5 4 -10 -5 -8 -12 -7
-23 2 -15 12 -16 11 -3 -4 7 -10 18 -15 25 -11 6 4 4 -2 -4 -12 -9 -11 -10
-16 -2 -11 8 5 12 0 12 -14 0 -14 -4 -19 -12 -14 -7 4 -6 -1 3 -12 9 -10 15
-29 14 -41 -1 -12 2 -20 6 -18 4 3 10 -2 13 -11 5 -12 2 -15 -11 -10 -16 5
-16 5 -2 -7 12 -9 14 -18 7 -36 -4 -13 -6 -26 -3 -29 3 -3 5 0 5 6 0 7 4 12 8
12 11 0 9 -37 -3 -47 -4 -5 -5 -2 -1 4 5 9 2 11 -9 6 -9 -3 -13 -9 -8 -12 15
-11 36 -42 27 -40 -15 4 -44 -12 -39 -21 3 -5 1 -11 -4 -14 -5 -4 -8 5 -7 18
2 14 0 25 -3 24 -15 -3 -41 15 -41 28 0 8 -10 14 -22 15 -21 0 -22 1 -4 8 19
7 18 8 -4 14 -21 5 -22 8 -9 23 10 12 10 15 1 10 -9 -6 -12 -1 -8 17 3 16 -1
24 -10 24 -10 0 -11 -4 -3 -13 7 -8 6 -14 -2 -20 -7 -4 -9 -3 -5 4 3 6 2 14
-4 17 -8 5 -8 11 0 20 9 11 7 17 -9 27 -14 8 -17 16 -10 24 6 8 4 16 -8 25 -9
8 -14 9 -10 2 4 -6 2 -15 -4 -19 -7 -4 -9 -3 -5 4 3 6 -2 18 -11 28 -16 16
-16 16 6 9 22 -7 23 -7 4 12 -12 13 -21 16 -26 9 -5 -7 -7 -2 -4 12 3 12 1 20
-4 16 -8 -5 -13 10 -10 29 1 5 -3 6 -8 2 -6 -3 -7 -13 -4 -23 7 -18 5 -17 -17
12 -10 13 -10 17 -2 12 7 -4 12 -2 12 5 0 6 -8 9 -20 6 -14 -3 -18 -1 -13 6 4
7 8 18 9 25 2 10 -1 11 -12 1 -8 -6 -18 -9 -21 -5 -4 4 -1 11 7 16 9 6 10 10
3 10 -7 0 -17 -8 -22 -17 -6 -10 -11 -15 -12 -10 -5 23 -4 33 6 39 6 5 3 8 -6
8 -11 0 -16 -9 -16 -25 0 -14 4 -25 9 -25 5 0 7 -4 3 -9 -3 -6 4 -8 16 -6 20
4 21 3 5 -14 -16 -17 -15 -18 7 -14 17 3 26 -1 31 -13 5 -14 4 -15 -8 -5 -11
9 -16 9 -22 0 -4 -8 -3 -9 4 -5 12 7 15 -1 15 -35 0 -9 6 -16 13 -17 8 -1 21
-3 29 -4 9 -1 11 -6 7 -12 -12 -16 -9 -36 8 -46 12 -8 12 -10 1 -10 -10 0 -11
-3 -2 -14 8 -10 9 -16 1 -21 -5 -3 -10 -14 -10 -23 0 -15 2 -15 11 -2 8 12 9
10 4 -7 -4 -15 -2 -23 5 -23 7 0 2 -9 -11 -20 -13 -11 -19 -20 -14 -19 22 3
35 -1 35 -12 0 -5 -4 -8 -9 -4 -5 3 -13 0 -17 -6 -4 -7 -3 -9 4 -5 6 3 13 2
17 -4 3 -5 0 -10 -7 -11 -7 0 -21 -2 -30 -4 -21 -4 -23 5 -6 26 10 11 9 10 -4
-1 -9 -8 -18 -21 -20 -29 -3 -15 29 -24 38 -10 3 5 11 9 17 9 7 0 5 -5 -4 -10
-10 -6 -15 -20 -14 -34 3 -23 0 -25 -31 -24 -19 1 -34 5 -34 10 0 5 -5 6 -11
2 -8 -5 -8 -1 0 14 12 23 5 31 -32 34 -18 2 -23 7 -19 20 2 10 -1 18 -7 18 -6
0 -11 6 -11 14 0 8 -5 18 -11 22 -8 4 -9 -1 -4 -17 7 -22 7 -22 -9 -6 -10 9
-22 14 -28 11 -7 -4 -8 -2 -4 5 4 6 13 8 19 5 7 -3 -1 6 -18 21 -16 15 -29 32
-27 38 2 6 -4 4 -13 -3 -8 -7 -18 -10 -22 -6 -3 3 -1 6 5 6 7 0 5 8 -5 20 -10
11 -23 20 -30 20 -7 0 -13 7 -13 15 0 8 -7 15 -16 15 -8 0 -12 4 -9 10 3 6 -1
7 -9 4 -9 -3 -16 -11 -16 -17 0 -6 -3 -7 -6 -4 -4 4 -1 13 6 22 15 18 -1 20
-19 3 -10 -11 -11 -10 -7 2 11 28 -8 42 -37 29 -29 -13 -27 -29 5 -29 14 0 18
-5 14 -16 -4 -9 -2 -13 5 -8 8 4 9 -1 4 -17 -4 -18 -4 -20 4 -10 8 12 12 12
25 2 9 -8 16 -18 16 -24 0 -6 -7 -2 -15 9 -13 16 -14 16 -9 2 3 -10 2 -18 -3
-18 -5 0 -10 -7 -10 -16 0 -14 2 -14 14 2 7 10 13 14 13 10 0 -5 6 -4 13 2 8
7 16 6 24 -3 10 -10 9 -14 -3 -19 -8 -3 -12 -1 -9 4 3 6 -1 7 -9 4 -9 -3 -16
-10 -16 -16 0 -5 4 -7 9 -3 5 3 12 1 15 -4 4 -5 -4 -13 -15 -16 -21 -7 -21 -8
-4 -17 14 -8 15 -12 4 -19 -11 -7 -11 -9 -1 -9 7 0 10 -5 6 -12 -4 -7 -3 -8 4
-4 7 4 12 3 12 -3 0 -5 -6 -12 -12 -14 -10 -4 -10 -6 0 -6 18 -1 15 -32 -5
-48 -16 -13 -16 -13 5 -3 15 7 22 7 22 0 0 -5 -8 -10 -17 -10 -15 0 -16 -2 -3
-10 8 -5 10 -10 4 -10 -16 0 -35 25 -26 35 4 5 -1 5 -10 2 -10 -4 -18 -2 -18
3 0 6 5 10 12 10 6 0 8 3 5 6 -4 4 -14 1 -24 -7 -14 -12 -16 -12 -8 0 6 11 4
13 -8 8 -10 -3 -18 -2 -18 3 -1 6 -3 15 -4 20 -1 6 -3 13 -4 16 0 4 -9 0 -18
-7 -15 -12 -16 -12 -10 4 4 11 3 16 -3 12 -6 -4 -20 4 -31 17 -11 13 -18 17
-14 11 4 -8 0 -13 -10 -13 -10 0 -14 5 -9 13 5 9 4 9 -5 1 -16 -15 -75 12 -64
29 4 7 -2 5 -12 -3 -17 -14 -18 -13 -12 2 5 13 0 16 -23 13 -22 -3 -28 0 -24
10 4 9 -1 13 -15 12 -12 -1 -21 -5 -21 -10 0 -4 -5 -5 -10 -2 -6 4 -7 11 -4
17 4 7 2 8 -4 4 -9 -5 -9 -12 0 -25 10 -16 14 -17 25 -5 18 18 29 18 15 1 -7
-8 -7 -18 -2 -27 7 -11 10 -12 10 -2 0 7 5 10 10 7 6 -4 8 -10 5 -15 -3 -5 4
-7 15 -5 11 2 20 0 20 -6 0 -5 5 -9 11 -9 5 0 7 6 3 13 -4 6 2 4 13 -6 11 -9
23 -14 28 -10 4 5 5 2 1 -5 -6 -10 -11 -10 -22 -1 -10 8 -14 8 -14 0 0 -10 12
-14 26 -8 3 1 12 -9 19 -23 7 -14 16 -24 19 -22 15 6 36 1 31 -8 -3 -5 1 -10
9 -10 15 0 21 -12 17 -34 -1 -5 4 -4 12 2 12 10 14 8 12 -13 -2 -14 1 -23 6
-19 5 3 6 10 3 16 -4 7 -2 8 5 4 6 -4 9 -12 6 -17 -4 -5 -1 -9 6 -9 8 0 7 -5
-2 -16 -12 -15 -11 -16 11 -9 23 7 24 7 10 -10 -8 -11 -10 -16 -3 -12 6 4 14
3 18 -2 3 -6 13 -8 23 -5 14 5 14 4 3 -4 -8 -6 -21 -8 -30 -5 -9 3 -5 -3 9
-13 14 -10 28 -18 31 -17 10 3 -2 -36 -12 -42 -4 -3 -6 3 -4 15 2 11 -1 23 -7
26 -6 4 -8 3 -4 -4 3 -5 0 -12 -6 -15 -10 -3 -9 -9 4 -22 14 -15 20 -16 32 -5
12 9 16 9 16 1 0 -7 5 -9 12 -5 6 4 8 3 4 -4 -3 -5 0 -13 6 -15 9 -4 10 -6 1
-6 -6 -1 -15 4 -18 9 -9 15 -25 12 -25 -5 0 -7 -8 -19 -17 -25 -17 -11 -17
-11 0 -6 16 5 21 -4 18 -33 -2 -7 2 -10 7 -7 12 7 10 -20 -2 -31 -4 -4 -6 -1
-4 7 2 9 -3 14 -13 12 -9 -1 -16 4 -16 13 0 8 4 12 8 9 4 -2 10 0 13 5 7 10
-20 9 -30 -2 -13 -13 -27 -7 -15 6 15 19 1 30 -17 14 -13 -10 -14 -9 -8 1 4 7
1 15 -8 18 -9 3 -14 10 -11 14 3 5 0 12 -6 16 -8 4 -9 3 -5 -4 4 -7 2 -12 -3
-12 -10 0 -15 14 -12 33 1 5 -3 6 -8 3 -5 -3 -12 1 -15 9 -5 13 -10 14 -27 4
-15 -8 -19 -8 -15 0 4 6 1 11 -6 11 -9 0 -9 3 2 10 8 5 10 10 4 10 -5 0 -16
-6 -23 -12 -11 -10 -13 -10 -7 0 4 7 1 12 -8 12 -9 0 -16 5 -16 10 0 6 -9 10
-21 10 -11 0 -18 4 -15 9 4 5 -4 7 -16 3 -16 -4 -19 -2 -13 8 5 9 4 11 -3 6
-7 -4 -12 -3 -12 3 0 6 -7 8 -15 5 -10 -4 -14 -1 -12 7 2 8 2 11 0 7 -3 -5
-14 -3 -26 4 -16 8 -22 8 -25 -1 -2 -6 -7 -9 -11 -7 -4 3 -13 1 -19 -3 -10 -6
-9 -11 3 -21 13 -11 15 -10 10 2 -4 9 0 15 10 15 9 0 14 -6 10 -14 -4 -11 1
-13 17 -7 16 5 20 3 15 -9 -4 -11 0 -13 14 -10 10 3 16 10 12 16 -4 6 -1 7 7
2 10 -6 8 -12 -9 -24 l-21 -16 24 0 c13 0 22 3 20 7 -2 4 0 9 5 12 5 4 8 -2 6
-11 -1 -10 3 -28 10 -39 9 -15 10 -25 3 -32 -6 -6 -6 -12 1 -16 6 -4 11 0 11
8 0 19 11 21 28 4 9 -9 12 -9 12 0 0 7 -4 12 -8 12 -5 0 -16 6 -27 13 -14 11
-15 16 -5 22 9 5 11 4 6 -3 -4 -7 -3 -12 3 -12 5 0 12 5 14 10 3 6 4 5 3 -2
-2 -7 3 -17 10 -23 20 -16 21 -37 1 -40 -9 -2 -15 1 -11 6 3 5 1 9 -5 9 -5 0
-13 -5 -16 -10 -10 -16 -37 10 -30 28 4 12 3 12 -9 3 -9 -8 -16 -8 -20 -2 -4
6 -14 7 -23 4 -10 -4 -14 -2 -10 4 3 5 1 10 -6 10 -7 0 -16 2 -22 3 -18 4 -35
0 -35 -9 0 -5 11 -8 24 -5 15 2 26 -2 30 -11 3 -8 1 -15 -4 -15 -6 0 -10 4
-10 8 0 5 -7 9 -15 9 -8 0 -15 -4 -15 -9 0 -4 7 -8 15 -8 13 0 14 -4 5 -22
-10 -21 -10 -21 3 -6 11 14 16 15 26 5 7 -7 17 -12 24 -12 7 0 12 -5 12 -12 0
-7 9 -19 20 -27 19 -14 19 -15 -8 -12 -15 1 -30 6 -35 11 -4 4 0 5 8 0 8 -5
12 -4 7 0 -4 5 -15 10 -25 11 -30 5 -47 9 -62 19 -13 8 -13 7 -1 -9 13 -15 12
-17 -13 -12 -15 3 -35 11 -44 18 -15 11 -15 11 -4 -4 9 -11 10 -18 2 -23 -5
-3 -10 -1 -10 6 0 7 -2 10 -5 7 -12 -11 7 -37 22 -31 10 4 14 2 9 -5 -3 -6 -2
-13 3 -16 5 -4 13 -1 17 5 5 8 3 9 -6 4 -9 -5 -11 -4 -6 4 6 9 11 9 24 -1 9
-7 13 -8 9 -2 -3 6 3 18 14 27 10 9 19 12 19 7 0 -6 -6 -13 -14 -16 -12 -5
-13 -11 -4 -30 8 -18 14 -21 19 -12 6 10 12 8 23 -8 11 -15 24 -21 46 -19 27
2 29 1 18 -14 -7 -9 -9 -13 -4 -9 4 4 17 -2 28 -12 11 -10 26 -16 34 -13 8 3
15 -2 15 -11 1 -9 2 -22 3 -28 0 -7 10 -13 20 -13 11 0 21 -6 24 -14 3 -9 0
-11 -8 -6 -9 5 -11 4 -6 -4 4 -6 11 -9 16 -6 5 3 11 1 15 -5 3 -5 -3 -10 -15
-10 -12 0 -19 -4 -15 -9 3 -5 0 -13 -6 -17 -8 -4 -9 -3 -5 4 3 6 -3 16 -14 22
-11 6 -18 15 -15 20 3 6 -1 7 -9 4 -9 -3 -13 -11 -9 -17 4 -6 1 -7 -6 -3 -7 5
-10 15 -6 23 4 13 3 14 -10 3 -12 -10 -15 -10 -15 5 0 16 -2 16 -27 0 l-28
-18 20 23 c11 13 14 20 6 15 -8 -4 -25 -9 -38 -11 -20 -2 -23 1 -17 19 6 22 6
22 -11 2 -9 -11 -14 -15 -11 -8 4 6 1 15 -5 19 -8 4 -9 3 -5 -4 4 -7 1 -12 -8
-12 -9 0 -16 5 -16 11 0 5 -5 7 -10 4 -6 -4 -8 -11 -5 -16 3 -5 -1 -6 -9 -3
-19 7 -21 20 -3 27 9 4 9 6 -1 6 -7 1 -15 -6 -18 -14 -4 -8 -10 -15 -16 -15
-5 0 -6 6 -2 13 5 7 0 6 -11 -3 -10 -8 -16 -10 -12 -3 4 6 3 14 -2 17 -5 4 -8
-4 -7 -17 2 -15 -2 -24 -11 -24 -9 0 -11 7 -7 21 6 20 6 20 -9 2 -14 -19 -14
-19 -25 0 -7 12 -12 14 -12 5 0 -10 -3 -11 -14 -2 -11 9 -16 9 -22 0 -4 -7 -3
-9 4 -5 6 3 13 2 17 -4 4 -6 11 -7 17 -4 7 5 9 2 6 -7 -4 -11 1 -14 23 -13 16
1 29 -3 29 -9 0 -7 7 -4 14 6 12 15 14 16 20 2 3 -8 13 -15 21 -15 10 0 13 5
9 12 -4 7 -3 8 4 4 6 -4 9 -12 6 -19 -2 -7 4 -13 16 -14 12 -1 18 2 14 9 -5 7
-2 8 5 4 7 -5 10 -15 6 -24 -3 -9 -3 -13 1 -9 4 4 14 1 22 -6 11 -8 14 -8 9 0
-4 6 -3 15 3 18 6 4 9 1 8 -7 -2 -7 3 -12 11 -10 12 3 12 0 2 -12 -10 -12 -9
-14 8 -9 15 4 21 1 21 -11 0 -9 5 -16 11 -16 5 0 8 4 4 9 -3 5 0 13 7 17 7 4
10 4 7 0 -8 -9 43 -62 55 -58 5 2 4 -4 -3 -12 -17 -20 -41 -9 -38 16 1 12 -5
23 -13 25 -12 4 -13 3 -1 -5 16 -12 5 -36 -14 -28 -7 2 -16 2 -19 -2 -12 -11
-33 -10 -33 3 0 7 11 11 28 10 16 -1 27 1 24 5 -5 9 -46 7 -62 -3 -7 -4 -20 2
-32 14 -19 20 -21 21 -27 5 -6 -15 -9 -14 -26 11 -11 15 -18 20 -14 11 3 -10
1 -20 -4 -23 -9 -6 -15 16 -11 38 1 5 -3 6 -8 2 -6 -3 -7 -13 -4 -23 3 -9 -4
-4 -17 11 -12 15 -25 26 -28 23 -2 -3 1 -14 9 -23 12 -16 12 -17 -2 -6 -9 7
-19 10 -23 6 -3 -4 -14 -8 -22 -9 -9 -1 -13 1 -9 4 4 4 11 7 17 7 6 0 12 7 13
15 2 12 -5 15 -26 14 -16 -1 -26 2 -23 7 3 5 9 7 14 4 4 -3 11 2 14 10 5 14 2
14 -23 1 -28 -15 -41 -12 -41 8 0 6 5 4 10 -4 5 -8 10 -10 10 -5 0 6 -5 17
-10 25 -7 11 -10 11 -10 2 0 -7 -5 -10 -10 -7 -6 4 -7 11 -4 17 4 6 -1 6 -14
-1 -29 -16 -37 -14 -21 6 8 9 9 14 2 10 -7 -4 -13 0 -16 10 -4 17 -5 17 -6 0
0 -10 -5 -16 -10 -12 -5 3 -13 1 -16 -5 -4 -6 -1 -9 7 -8 7 2 12 -3 10 -10 -1
-6 1 -11 5 -11 24 4 43 -3 41 -13 -2 -7 3 -12 11 -10 9 2 11 -3 7 -13 -5 -13
-1 -15 15 -10 16 5 20 3 16 -6 -2 -8 -10 -13 -16 -11 -7 1 -10 -2 -7 -7 4 -5
15 -8 26 -6 11 2 20 0 20 -5 0 -5 9 -12 21 -15 14 -5 19 -13 16 -25 -3 -12 0
-17 9 -13 7 2 10 12 8 21 -5 14 -3 14 6 -1 10 -15 14 -16 28 -5 15 11 15 11 4
-4 -10 -13 -10 -17 0 -21 7 -2 10 -8 6 -12 -4 -4 -14 -3 -21 3 -8 7 -17 9 -21
5 -14 -14 -61 -11 -73 5 -7 9 -13 11 -13 6 0 -16 -63 -3 -78 15 -8 9 -11 10
-7 4 3 -7 1 -13 -5 -13 -17 0 -7 -35 10 -35 8 -1 14 -6 13 -13 -2 -6 4 -9 13
-5 9 3 20 0 26 -8 8 -11 9 -10 4 4 -3 11 -2 16 4 12 6 -3 10 -1 10 4 0 21 16
11 17 -11 2 -18 0 -20 -7 -8 -5 8 -10 10 -10 4 0 -6 8 -18 17 -25 11 -10 14
-10 9 -1 -4 6 -3 12 2 12 5 0 12 -10 15 -22 5 -18 8 -19 21 -8 13 10 16 10 16
0 0 -9 3 -10 14 -1 11 9 13 6 11 -14 -2 -14 1 -23 6 -19 5 3 7 9 4 14 -3 5 -1
12 5 15 6 4 9 1 8 -6 -2 -7 2 -13 9 -14 6 0 15 -4 20 -9 4 -5 3 -6 -4 -2 -6 3
-15 2 -18 -4 -4 -6 -3 -10 2 -9 22 4 34 -2 27 -13 -5 -8 0 -7 11 2 14 11 17
11 11 1 -7 -10 -3 -12 13 -6 13 4 21 2 21 -5 0 -6 -4 -8 -10 -5 -5 3 -10 1
-10 -4 0 -6 7 -11 16 -11 9 0 12 -5 8 -12 -6 -10 -4 -10 7 0 7 6 18 12 23 12
7 0 7 -3 0 -8 -8 -5 -5 -13 8 -27 19 -20 19 -20 13 0 -6 16 -5 17 4 5 8 -11 7
-18 -6 -27 -9 -7 -13 -13 -9 -13 5 0 3 -6 -3 -13 -6 -8 -10 -16 -8 -18 1 -2
-4 2 -10 10 -11 13 -13 13 -14 0 -1 -8 -1 -18 0 -22 1 -5 -3 -6 -9 -2 -6 3 -8
11 -5 16 10 15 -5 31 -18 21 -7 -5 -20 -8 -30 -7 -9 2 -15 -1 -11 -6 3 -5 1
-9 -5 -9 -5 0 -12 6 -14 13 -3 6 -6 3 -6 -8 -1 -16 -3 -17 -11 -5 -5 9 -5 19
1 27 8 9 5 9 -15 0 -13 -6 -20 -14 -15 -18 5 -3 -4 -6 -21 -6 -24 0 -28 3 -16
9 9 5 16 14 16 21 0 7 -4 6 -10 -3 -7 -12 -12 -12 -22 -2 -15 15 -28 16 -28 1
0 -5 4 -8 8 -5 5 3 9 -2 9 -11 0 -12 -4 -11 -19 7 -10 12 -15 27 -11 33 3 5 1
7 -5 3 -5 -3 -12 -3 -15 1 -2 5 -2 2 -1 -4 2 -7 -1 -13 -6 -13 -6 0 -10 5 -10
12 0 6 -3 8 -7 4 -4 -3 9 -20 28 -37 19 -17 28 -28 22 -24 -7 3 -13 1 -13 -4
0 -6 -7 -11 -15 -11 -8 0 -15 5 -15 11 0 5 -4 8 -8 5 -7 -4 -11 9 -14 51 -1 7
-5 10 -9 8 -4 -3 -5 -14 -2 -24 3 -10 -1 -22 -8 -26 -8 -5 -10 -4 -5 3 4 7 2
12 -4 12 -6 0 -8 5 -4 12 5 8 2 9 -9 5 -11 -4 -17 -1 -17 8 0 13 -32 21 -63
16 -4 -1 -3 7 2 18 8 15 8 19 -4 17 -8 -1 -18 -6 -22 -11 -4 -4 -2 -5 6 0 9 5
12 4 7 -3 -9 -15 -11 -15 -27 5 -9 11 -10 14 -2 9 9 -5 11 -2 7 9 -4 9 -9 13
-12 10 -3 -3 -14 3 -24 12 -15 14 -21 14 -31 3 -9 -10 -9 -11 1 -6 7 4 19 2
27 -4 17 -15 20 -30 4 -30 -5 0 -8 4 -4 9 3 5 0 13 -6 17 -14 8 -29 -15 -21
-34 4 -11 1 -13 -9 -7 -8 5 -11 5 -6 -1 9 -9 13 -10 43 -13 13 -1 14 -4 5 -15
-9 -11 -6 -12 14 -8 14 2 22 9 18 15 -3 6 -1 7 5 3 17 -10 15 -15 -10 -27 -22
-9 -21 -9 4 -6 15 2 25 0 22 -4 -3 -5 0 -17 6 -26 10 -16 11 -16 5 2 -3 11 -3
16 1 12 4 -4 14 -1 23 6 14 11 15 10 1 -7 -13 -16 -12 -20 3 -31 9 -7 17 -17
17 -22 0 -5 7 -10 15 -11 8 -1 21 -3 29 -4 8 -1 12 -7 9 -15 -3 -7 0 -20 7
-28 10 -12 16 -13 28 -3 13 10 14 10 8 1 -5 -9 -1 -13 11 -13 11 0 14 -3 7 -8
-16 -10 -13 -40 3 -38 8 1 18 8 23 16 6 9 9 8 14 -8 4 -11 16 -22 27 -25 12
-3 18 -10 14 -16 -4 -7 1 -8 12 -4 16 6 16 5 5 -10 -12 -15 -11 -15 18 -7 27
8 30 7 20 -5 -10 -11 -10 -15 -1 -15 7 0 9 -5 5 -11 -4 -7 1 -7 16 1 20 11 22
10 16 -5 -5 -13 -2 -16 10 -11 11 4 15 2 11 -8 -3 -7 -1 -18 4 -23 5 -5 1 -16
-11 -26 -22 -18 -28 -9 -8 12 11 12 10 13 -6 7 -14 -5 -17 -2 -12 9 3 10 2 13
-5 10 -6 -4 -8 -12 -6 -19 3 -6 -2 -17 -10 -24 -11 -11 -13 -8 -8 18 5 27 3
29 -9 18 -8 -7 -12 -16 -9 -20 2 -4 -3 -5 -12 -2 -14 6 -14 8 2 20 14 10 14
12 3 11 -8 -2 -21 -6 -27 -10 -8 -5 -13 -4 -13 2 0 6 -9 11 -20 11 -11 0 -20
5 -20 11 0 8 -6 7 -17 -2 -9 -8 -14 -9 -11 -4 3 6 -3 18 -12 28 -17 17 -18 17
-17 1 3 -23 -19 -29 -27 -8 -6 15 -4 15 11 3 16 -13 17 -12 5 3 -11 13 -19 15
-38 7 -18 -6 -23 -6 -18 2 5 8 -1 10 -20 7 -20 -4 -31 0 -41 16 -8 11 -15 15
-15 8 0 -7 -5 -10 -10 -7 -8 5 -7 12 2 22 12 15 11 15 -9 2 -17 -10 -21 -20
-17 -42 3 -18 1 -26 -6 -22 -6 3 -7 0 -4 -9 7 -19 16 -20 33 -3 11 10 12 8 6
-11 -3 -12 -3 -22 2 -21 21 4 44 -2 39 -10 -3 -5 1 -14 9 -21 8 -7 15 -9 15
-5 0 5 10 0 22 -11 12 -10 18 -14 15 -8 -4 7 0 14 8 17 10 4 12 1 8 -10 -5
-13 -2 -15 11 -10 14 6 17 3 12 -9 -6 -15 -4 -15 11 -3 9 8 14 9 10 3 -3 -6 8
-16 28 -24 19 -7 32 -17 29 -22 -3 -4 7 -8 23 -8 23 0 25 -2 13 -11 -12 -9
-10 -10 8 -6 20 5 22 3 10 -11 -10 -12 -10 -14 0 -8 6 4 12 3 12 -2 0 -5 10
-14 22 -20 15 -7 17 -11 8 -11 -13 -1 -13 -3 0 -12 12 -9 12 -10 -4 -5 -14 5
-17 2 -12 -9 3 -10 2 -13 -5 -10 -5 4 -7 16 -3 27 5 18 4 19 -9 7 -8 -8 -13
-17 -11 -21 2 -3 -12 -5 -31 -3 -19 2 -35 -1 -35 -7 0 -5 4 -6 10 -3 6 4 7 -1
3 -11 -4 -11 -8 -13 -11 -6 -2 7 -11 12 -19 12 -13 0 -14 -2 -2 -17 12 -16 12
-17 -1 -7 -8 6 -24 10 -34 8 -11 -1 -28 2 -38 7 -10 5 -18 6 -17 2 3 -19 -2
-27 -10 -15 -7 11 -9 10 -14 -3 -4 -9 -3 -13 3 -10 6 3 10 0 10 -7 0 -8 5 -6
11 5 8 13 14 15 23 8 7 -6 22 -9 34 -6 12 2 25 -1 28 -7 4 -7 2 -8 -4 -4 -7 4
-12 2 -12 -3 0 -15 13 -14 29 2 11 10 12 9 6 -2 -6 -10 -2 -11 15 -6 12 4 38
7 59 7 20 0 40 5 44 11 5 7 5 1 1 -13 -6 -23 -6 -24 12 -10 10 8 23 20 27 25
5 6 6 2 3 -9 -6 -16 -2 -18 25 -12 31 6 66 -14 51 -29 -4 -3 2 -13 12 -21 19
-13 11 -20 -17 -15 -5 1 -6 -3 -2 -8 3 -6 11 -9 18 -7 7 1 9 1 4 -1 -4 -3 -4
-10 -1 -15 5 -7 2 -8 -5 -4 -7 5 -18 0 -27 -10 -11 -15 -13 -15 -8 -3 4 12 -1
16 -18 15 -30 -1 -36 -11 -33 -51 2 -29 -1 -33 -22 -30 -13 1 -26 -2 -29 -7
-3 -4 -10 -5 -16 -2 -7 5 -8 2 -3 -6 6 -10 4 -12 -10 -6 -15 5 -16 4 -6 -8 9
-11 9 -16 0 -22 -8 -4 -9 -3 -5 4 4 7 3 12 -3 12 -5 0 -13 -5 -16 -10 -4 -6
-11 -8 -16 -5 -5 4 -9 0 -9 -7 -1 -8 -7 -5 -16 7 -16 20 -16 20 -10 -2 7 -22
-6 -26 -33 -9 -9 6 -12 5 -7 -2 3 -6 -3 -16 -14 -22 -13 -7 -20 -7 -20 0 0 5
-5 10 -11 10 -5 0 -7 -4 -4 -10 3 -5 1 -10 -4 -10 -17 0 -26 4 -24 12 3 9 -25
4 -34 -7 -4 -4 -3 -6 2 -3 11 6 28 -10 33 -30 1 -7 -2 -12 -8 -12 -19 0 -10
-16 10 -17 11 -1 20 3 20 8 0 6 5 7 10 4 8 -5 7 -12 -2 -23 -12 -15 -11 -16 5
-3 15 12 17 12 12 -1 -4 -9 0 -18 8 -21 10 -4 13 1 9 19 -2 13 -9 24 -14 24
-5 0 -7 4 -3 9 3 6 -2 14 -11 19 -11 6 -13 11 -5 16 6 4 11 2 11 -5 0 -8 3 -9
14 0 10 9 16 8 26 -4 11 -14 7 -19 -13 -16 -4 0 -7 -3 -7 -9 0 -5 4 -10 10
-10 5 0 7 -6 4 -13 -2 -7 4 -24 16 -37 11 -13 20 -19 20 -14 0 6 11 10 24 10
14 0 22 -4 20 -8 -3 -5 -9 -6 -14 -3 -5 3 -12 0 -16 -6 -4 -7 -3 -9 4 -5 6 3
13 2 17 -3 3 -6 12 -8 19 -5 17 6 56 -33 56 -55 0 -13 -2 -14 -9 -2 -6 9 -8
-2 -7 -32 1 -25 4 -49 8 -52 3 -4 4 10 2 29 -3 32 -1 35 15 27 13 -7 18 -6 18
4 0 8 -5 11 -10 8 -6 -3 -7 -1 -3 5 4 8 15 8 31 2 16 -6 27 -6 31 2 4 6 3 8
-2 5 -6 -3 -16 -1 -24 4 -12 7 -11 8 5 6 11 -1 26 -7 34 -11 10 -7 13 -5 9 5
-4 10 1 15 12 15 10 0 16 -4 13 -9 -3 -5 4 -6 16 -2 13 4 21 2 21 -5 0 -6 5
-8 12 -4 7 4 8 3 4 -5 -6 -9 -12 -9 -24 1 -15 12 -16 11 -3 -5 8 -10 20 -16
27 -13 8 3 11 0 7 -10 -4 -11 -9 -12 -16 -5 -8 8 -17 6 -31 -7 -11 -9 -16 -11
-12 -4 4 6 2 12 -3 12 -6 0 -11 -5 -11 -11 0 -5 -5 -7 -10 -4 -6 4 -7 12 -4
18 4 7 3 8 -2 4 -5 -5 -10 -13 -10 -18 -3 -22 -5 -23 -14 -9 -8 12 -10 11 -10
-7 0 -13 -5 -23 -11 -23 -5 0 -8 4 -4 9 3 6 -4 9 -16 8 l-21 -1 22 -18 c12
-10 18 -18 13 -18 -5 0 -14 5 -20 11 -9 9 -18 8 -37 -5 -15 -9 -26 -21 -26
-26 0 -14 18 -21 25 -10 4 6 11 8 16 5 5 -3 6 1 3 9 -3 9 -1 16 5 16 6 0 11
-3 11 -8 0 -4 14 -8 31 -8 18 -1 26 2 19 6 -8 5 -5 9 9 13 11 2 29 -2 40 -9
15 -11 22 -11 27 -3 5 8 3 9 -6 4 -9 -5 -11 -4 -6 4 5 7 13 8 24 2 12 -7 23
-5 36 7 11 9 16 11 12 5 -9 -16 -1 -16 25 -3 13 8 19 7 19 0 0 -8 6 -8 20 0
14 7 20 8 20 0 0 -6 11 -8 25 -6 13 3 27 0 31 -5 3 -5 9 -7 14 -4 4 3 6 -5 2
-17 -4 -15 -2 -19 7 -13 10 6 11 3 2 -14 -7 -12 -9 -26 -6 -31 4 -6 1 -9 -7
-8 -7 2 -12 -2 -11 -9 2 -9 -4 -10 -22 -3 -20 8 -23 7 -18 -7 5 -13 2 -15 -11
-10 -10 4 -15 3 -11 -3 3 -6 1 -11 -4 -11 -26 -3 -30 -4 -37 -11 -11 -12 -22
-10 -27 5 -2 6 -2 0 0 -15 3 -17 0 -28 -7 -28 -6 0 -9 4 -5 9 3 5 1 12 -5 16
-5 3 -10 1 -10 -5 0 -6 -5 -8 -10 -5 -6 4 -7 12 -3 18 3 7 -3 4 -14 -6 -11 -9
-23 -14 -28 -10 -4 5 -6 1 -3 -7 8 -21 -89 -21 -102 0 -8 12 -10 12 -10 2 0
-8 -6 -12 -12 -9 -7 2 -25 -2 -40 -10 -16 -7 -28 -9 -28 -4 0 5 -11 8 -25 6
-14 -1 -28 2 -31 7 -3 4 -11 5 -17 1 -7 -4 -18 -8 -25 -9 -27 -5 -42 -14 -41
-26 0 -10 2 -10 6 0 2 6 12 12 20 12 13 0 14 -2 2 -17 -12 -16 -12 -17 2 -6
12 10 18 10 29 0 8 -8 11 -8 7 -1 -4 7 0 15 9 18 11 4 15 2 11 -8 -4 -11 -1
-13 10 -9 10 4 14 2 10 -4 -7 -12 63 -11 82 1 6 4 11 2 11 -5 0 -8 5 -7 17 2
11 10 14 10 9 1 -5 -9 2 -11 30 -7 l37 4 -19 -22 c-19 -22 -19 -22 1 -6 23 19
80 35 71 20 -4 -5 -1 -13 5 -17 8 -4 9 -3 5 4 -4 8 0 12 11 12 11 0 24 5 30
11 8 8 13 7 18 -2 6 -8 4 -10 -6 -4 -11 7 -12 6 -2 -7 7 -8 9 -18 5 -23 -4 -4
3 -3 15 4 14 7 24 8 28 1 3 -5 -2 -10 -12 -10 -11 0 -24 -5 -30 -11 -7 -7 -15
-5 -28 7 -17 17 -17 17 -11 -4 5 -13 3 -22 -3 -22 -6 0 -11 5 -11 10 0 6 -5
10 -11 10 -5 0 -7 -4 -4 -10 3 -5 -3 -10 -15 -10 -12 0 -18 -4 -15 -10 3 -6 1
-10 -4 -10 -6 0 -11 5 -11 10 0 6 -5 10 -11 10 -8 0 -9 -4 0 -13 6 -8 7 -18 3
-22 -4 -5 5 -1 20 8 19 12 29 14 34 5 4 -7 3 -8 -4 -4 -7 4 -12 3 -12 -2 0
-18 38 -20 61 -4 12 8 19 10 15 4 -4 -7 -1 -12 9 -12 9 0 14 4 10 9 -3 5 0 13
6 17 8 4 9 3 5 -4 -4 -7 -3 -12 3 -12 6 0 8 -8 5 -17 -2 -10 1 -8 7 5 7 12 16
22 21 22 5 0 6 -4 3 -10 -3 -5 -2 -10 4 -10 5 0 12 6 14 13 4 9 6 8 6 -2 1
-11 4 -11 18 0 9 8 14 9 10 3 -4 -7 2 -14 13 -17 22 -6 28 8 8 16 -7 3 -3 4 9
4 12 -1 20 -4 17 -8 -2 -4 0 -10 6 -14 5 -3 10 2 10 12 0 13 2 15 9 5 4 -7 17
-15 27 -17 10 -2 19 -4 19 -5 0 -1 17 -3 37 -4 20 -1 34 2 32 6 -3 5 0 8 5 8
6 0 11 -4 11 -8 0 -4 9 -8 19 -8 11 0 17 4 15 8 -3 4 0 8 5 8 6 0 11 -6 12
-12 0 -7 4 -4 9 7 5 11 9 15 9 9 1 -7 12 -14 26 -16 13 -3 22 -2 20 2 -3 5 6
7 20 6 14 0 25 -4 25 -8 0 -4 6 -6 13 -4 6 1 9 1 5 -1 -14 -8 -9 -21 10 -26
16 -4 16 -5 -1 -6 -10 0 -15 -5 -12 -11 4 -6 -1 -7 -12 -3 -15 6 -16 4 -5 -9
10 -12 10 -18 -2 -28 -9 -6 -21 -8 -28 -4 -8 5 -8 1 2 -11 8 -10 11 -16 5 -13
-13 8 -48 -39 -35 -47 13 -8 13 -25 -1 -25 -5 0 -7 5 -4 10 3 6 2 10 -3 10 -6
0 -12 -7 -16 -15 -3 -8 -1 -15 4 -15 6 0 10 -4 10 -10 0 -5 -8 -7 -18 -3 -9 3
-13 2 -9 -2 4 -5 -3 -15 -15 -23 -18 -10 -18 -12 -3 -6 11 4 27 7 35 8 9 0 27
11 40 24 14 14 19 21 11 17 -10 -6 -12 -4 -6 4 5 8 19 11 39 7 29 -5 30 -5 9
7 -22 12 -22 13 -4 24 13 8 22 8 29 1 8 -8 10 0 7 28 -3 24 -1 32 4 20 7 -17
9 -17 29 9 12 15 22 22 22 16 0 -9 5 -9 21 0 13 6 19 7 15 1 -3 -6 2 -13 11
-15 17 -4 17 -5 1 -6 -10 0 -18 -6 -18 -12 0 -5 -4 -7 -10 -4 -5 3 -10 1 -10
-5 0 -6 -4 -8 -10 -5 -5 3 -7 0 -4 -8 3 -8 0 -18 -6 -22 -9 -6 -9 -10 1 -17
11 -8 11 -9 -1 -5 -19 6 -62 -27 -52 -39 4 -4 -5 0 -20 9 -16 10 -28 13 -28 8
0 -5 7 -11 15 -15 8 -3 15 -11 15 -18 0 -8 -3 -9 -8 -3 -10 13 -42 18 -42 6 0
-5 6 -12 13 -14 7 -3 5 -6 -5 -6 -10 -1 -18 4 -18 10 0 5 -5 7 -10 4 -8 -5 -7
-12 2 -23 7 -10 8 -14 4 -10 -5 4 -15 3 -23 -4 -11 -9 -13 -8 -11 2 2 7 -3 15
-10 17 -7 3 -12 1 -11 -4 4 -20 -2 -24 -18 -12 -9 8 -14 9 -10 3 4 -7 0 -15
-9 -18 -9 -3 -12 -11 -8 -18 5 -8 0 -7 -11 2 -11 9 -16 10 -11 3 4 -8 2 -13
-6 -13 -8 0 -20 6 -28 13 -12 10 -12 9 -2 -5 9 -11 10 -18 2 -23 -5 -3 -10 0
-10 7 0 8 -3 9 -8 3 -8 -12 -22 -13 -39 -2 -8 5 -13 4 -13 -2 0 -6 5 -11 11
-11 6 0 8 -9 4 -22 -5 -21 -5 -21 9 2 13 22 21 21 17 -2 0 -5 4 -8 9 -8 6 0
10 5 10 12 0 6 10 3 22 -8 12 -10 18 -14 15 -8 -8 14 20 27 28 13 8 -12 25 -2
25 14 0 7 -4 6 -10 -3 -5 -8 -10 -10 -10 -4 0 21 14 24 33 7 11 -10 17 -12 13
-6 -4 7 -3 13 3 13 5 0 12 -6 14 -12 3 -8 6 -7 6 4 1 9 -4 20 -9 23 -6 3 -10
11 -10 18 0 6 6 2 14 -8 16 -22 50 -30 42 -10 -5 14 11 15 33 1 8 -5 12 -5 9
0 -3 5 4 17 15 27 19 19 19 18 13 -5 -3 -12 -3 -17 0 -10 3 6 11 9 16 6 7 -4
8 -2 4 4 -4 7 -2 12 4 12 6 0 8 5 4 11 -5 8 -1 8 14 0 17 -9 23 -7 36 11 9 12
16 17 16 10 0 -8 5 -10 12 -6 6 4 8 3 5 -3 -4 -6 3 -19 15 -29 21 -19 21 -19
8 6 -12 23 -12 24 4 11 9 -8 16 -10 15 -5 -3 20 1 35 10 30 10 -6 25 24 16 32
-3 3 -5 0 -5 -6 0 -7 -5 -12 -11 -12 -8 0 -7 5 1 15 7 9 15 13 17 11 5 -5 43
30 43 40 0 3 -5 2 -12 -2 -7 -5 -8 -3 -3 6 6 10 14 6 32 -16 13 -16 21 -21 17
-12 -6 18 10 25 20 9 8 -12 -20 -34 -33 -27 -6 4 -8 -4 -5 -20 3 -16 1 -23 -6
-19 -5 3 -7 0 -4 -8 3 -9 -3 -17 -18 -21 -19 -5 -20 -8 -8 -16 14 -9 13 -11
-9 -14 -5 0 -12 -4 -15 -9 -3 -4 -3 -5 1 -2 4 3 13 -5 20 -17 11 -20 12 -21
13 -4 0 16 2 17 18 5 9 -7 14 -9 10 -5 -4 5 -2 16 5 25 11 14 10 15 -7 1 -16
-12 -18 -12 -11 -1 5 9 4 12 -2 8 -5 -3 -10 0 -10 8 0 8 4 15 9 15 4 0 8 -5 8
-11 0 -5 5 -7 10 -4 6 4 8 11 5 16 -3 5 2 6 11 2 13 -5 15 -3 9 7 -5 9 -4 11
3 6 7 -4 12 -3 12 3 0 14 52 61 68 61 7 0 11 4 8 9 -4 5 4 7 16 3 19 -5 20 -6
4 -12 -10 -3 -17 -10 -17 -15 1 -6 -7 -19 -16 -30 -10 -11 -17 -23 -15 -27 1
-4 -5 -5 -13 -2 -8 4 -15 10 -15 16 0 5 5 6 12 2 7 -4 8 -3 4 4 -10 16 -14 15
-27 -9 -7 -13 -7 -19 -1 -15 6 3 13 2 16 -3 3 -5 -4 -11 -15 -14 -12 -3 -18
-10 -14 -16 4 -7 -1 -8 -12 -4 -16 6 -17 5 -3 -12 9 -11 10 -16 3 -11 -7 4
-13 2 -13 -4 0 -6 -8 -10 -17 -8 -12 2 -18 -3 -17 -15 2 -14 -1 -15 -12 -6
-11 9 -14 8 -14 -5 0 -10 -4 -14 -10 -11 -5 3 -11 1 -11 -4 -1 -6 -2 -15 -3
-21 0 -5 -4 -10 -8 -10 -5 0 -11 0 -14 0 -4 0 -1 7 6 15 11 13 10 14 -4 9 -9
-3 -17 -10 -17 -15 -1 -5 -2 -13 -3 -18 -2 -14 -16 -26 -16 -14 0 5 -7 10 -14
10 -12 0 -13 -5 -4 -21 11 -20 10 -20 -7 -6 -17 13 -18 13 -13 -1 5 -12 1 -15
-16 -14 -12 2 -33 -6 -46 -18 -15 -12 -18 -18 -8 -14 12 4 15 2 11 -8 -4 -11
-10 -12 -25 -4 -16 9 -19 8 -13 -2 6 -9 3 -10 -10 -5 -14 5 -16 4 -7 -7 16
-19 4 -29 -19 -17 -15 8 -17 7 -14 -9 3 -15 0 -18 -12 -14 -12 5 -14 3 -8 -8
7 -11 5 -11 -10 1 -15 12 -17 12 -10 1 6 -11 4 -13 -9 -8 -11 5 -15 3 -10 -5
5 -7 2 -9 -9 -5 -22 8 -40 -16 -24 -32 10 -11 8 -11 -9 -3 -19 10 -21 9 -20
-10 0 -12 -6 -23 -14 -25 -13 -4 -13 -3 0 6 11 8 11 11 2 11 -18 0 -66 -26
-81 -44 -7 -9 -18 -13 -24 -9 -6 3 -7 1 -3 -5 4 -7 3 -12 -1 -12 -5 0 -9 -10
-10 -22 -2 -22 -1 -22 12 2 8 14 14 21 15 16 0 -5 7 -3 15 4 18 15 20 0 2 -20
-6 -8 0 -4 16 9 15 14 27 21 27 17 0 -5 7 -3 16 5 14 11 13 14 -8 25 -13 8
-17 13 -11 14 7 0 23 -10 35 -22 15 -15 20 -17 15 -5 -3 9 -2 19 3 22 4 3 11
-1 13 -7 3 -7 6 -2 6 12 1 18 4 21 10 11 9 -14 31 -7 31 10 0 6 -4 7 -10 4 -5
-3 -10 -2 -10 4 0 5 9 9 19 8 11 0 18 -4 16 -7 -2 -4 2 -7 10 -7 8 0 12 4 9 9
-3 4 2 8 10 8 9 0 16 5 16 11 0 6 6 9 13 6 6 -2 18 3 25 12 8 9 11 11 8 4 -4
-7 1 -10 11 -9 9 2 19 9 21 17 3 11 1 11 -8 -1 -9 -12 -11 -12 -8 -1 2 8 14
16 27 18 15 2 20 -1 15 -9 -4 -7 -3 -8 5 -4 6 4 9 12 6 17 -4 5 1 9 10 9 9 0
13 4 10 10 -4 6 1 7 11 3 12 -4 15 -3 10 6 -5 7 -2 10 6 9 7 -2 12 3 10 10 -1
8 2 11 8 7 6 -3 8 -10 6 -14 -3 -4 1 -8 9 -8 8 0 12 4 9 9 -3 4 -2 8 3 9 33 3
51 11 68 32 12 13 27 21 35 19 13 -5 13 -3 1 12 -12 14 -12 16 3 10 10 -4 16
-1 16 7 0 11 3 11 10 -1 7 -11 10 -11 10 -2 0 8 5 10 13 6 7 -5 6 0 -3 11 -8
10 -10 16 -3 12 7 -4 17 0 23 10 9 15 10 14 4 -6 l-6 -24 23 22 c12 11 27 21
32 21 4 0 6 10 3 23 -3 12 -3 16 0 9 5 -10 9 -9 20 5 13 17 14 17 7 -1 -4 -13
-3 -17 5 -12 7 4 12 14 12 22 0 8 7 14 15 14 17 0 20 16 5 23 -6 3 -5 4 2 3 7
-2 19 4 26 13 8 9 11 10 7 4 -4 -9 -1 -11 9 -7 9 3 13 11 9 17 -4 6 0 8 10 4
18 -7 19 13 2 25 -6 5 -6 8 2 8 6 0 19 -7 27 -16 9 -8 16 -12 16 -7 0 5 -6 15
-12 22 -11 10 -10 12 2 9 8 -2 14 3 12 10 -1 8 2 11 8 7 6 -3 7 -11 4 -17 -4
-5 6 -2 20 7 15 10 26 14 25 9 -1 -5 0 -11 1 -14 1 -3 3 -13 5 -23 3 -15 1
-16 -11 -6 -8 6 -17 9 -21 5 -3 -3 -2 -6 4 -6 15 0 24 -40 10 -41 -7 0 -3 -4
8 -9 18 -8 18 -9 -5 -9 -20 -1 -22 -3 -10 -11 13 -8 13 -11 1 -22 -11 -11 -13
-11 -6 1 6 10 4 12 -4 7 -9 -6 -9 -11 1 -24 11 -14 10 -15 -6 -9 -15 6 -16 5
-8 -5 12 -15 -10 -53 -31 -53 -7 0 -11 -8 -9 -18 2 -9 -4 -20 -13 -23 -8 -3
-15 -15 -15 -26 0 -11 -8 -22 -20 -25 -11 -3 -17 -9 -14 -14 3 -5 0 -9 -6 -9
-6 0 -9 -4 -6 -9 3 -5 -2 -15 -12 -22 -15 -13 -16 -12 -4 3 10 12 10 18 1 24
-8 4 -9 3 -5 -5 4 -6 1 -14 -7 -17 -8 -3 -13 -16 -11 -30 1 -13 -2 -24 -8 -24
-6 0 -8 6 -5 13 3 8 -1 14 -8 14 -14 0 -8 -27 9 -40 7 -5 4 -7 -7 -3 -11 3
-17 1 -16 -7 3 -24 -1 -37 -12 -37 -8 0 -7 6 2 18 12 15 12 16 -2 5 -9 -7 -20
-9 -25 -5 -5 4 0 -4 11 -17 11 -14 15 -22 9 -18 -6 3 -20 -1 -30 -9 -10 -9
-14 -13 -8 -10 6 3 11 -1 11 -9 0 -8 -4 -12 -9 -9 -5 3 -16 0 -24 -7 -14 -12
-14 -14 3 -27 17 -14 17 -14 -1 -8 -14 5 -17 3 -12 -10 5 -14 4 -15 -9 -4 -9
7 -18 10 -22 6 -3 -3 -1 -6 5 -6 7 0 12 -5 12 -11 0 -6 -7 -8 -16 -5 -15 6
-15 4 -3 -11 12 -15 12 -16 -3 -11 -16 7 -35 -18 -23 -30 3 -3 5 0 5 6 0 20
16 13 17 -7 1 -14 -4 -18 -22 -17 -20 3 -22 1 -12 -15 10 -16 13 -17 17 -3 3
8 10 15 15 15 6 0 10 7 10 16 0 9 6 18 14 21 9 3 11 0 6 -9 -5 -8 -4 -10 0 -6
13 11 15 38 3 31 -7 -4 -8 -2 -4 4 4 6 14 8 23 5 12 -5 14 -3 8 7 -6 10 -4 12
8 7 12 -4 15 -1 12 14 -2 11 0 17 6 13 11 -7 41 15 35 25 -3 4 0 13 6 21 8 12
9 12 4 -2 -3 -10 -1 -18 4 -18 5 0 10 10 12 22 2 12 10 23 18 26 12 4 13 2 3
-9 -18 -18 -16 -34 2 -16 8 8 12 24 10 36 -3 19 -1 20 17 10 13 -7 18 -7 14
-1 -3 6 3 13 14 17 11 4 17 11 14 17 -4 6 -9 5 -15 -3 -4 -7 -11 -10 -16 -6
-11 12 16 25 41 21 11 -2 15 -2 8 2 -17 8 -5 24 13 17 10 -3 15 1 15 15 0 12
5 24 12 28 6 4 8 3 4 -4 -3 -6 -2 -13 4 -17 5 -3 15 -16 22 -28 10 -21 10 -21
-7 -7 -17 14 -17 13 -7 -5 9 -18 7 -21 -11 -22 -12 -1 -23 -7 -25 -13 -2 -5
-9 -7 -14 -4 -7 4 -8 2 -4 -5 6 -9 12 -9 24 1 15 11 15 11 5 -3 -7 -9 -9 -19
-5 -24 4 -4 -3 -3 -14 3 -17 9 -25 8 -34 -3 -9 -11 -9 -15 -1 -15 6 0 11 5 11
11 0 6 7 4 15 -5 19 -19 20 -32 1 -17 -10 8 -16 9 -21 1 -3 -6 -12 -7 -18 -3
-7 4 -5 -2 3 -12 14 -17 13 -18 -8 -12 -23 5 -23 5 -6 -14 9 -10 14 -22 11
-26 -4 -3 -7 -1 -7 5 0 7 -5 12 -10 12 -7 0 -7 -6 -1 -19 6 -10 7 -21 4 -25
-3 -3 -1 -6 5 -6 9 0 25 31 27 53 0 8 18 8 25 0 3 -4 0 -3 -7 0 -13 8 -12 -18
2 -30 4 -4 5 -3 1 4 -3 6 -2 14 3 18 6 3 7 13 4 23 -6 15 -4 15 15 -2 12 -11
22 -14 22 -8 0 6 -5 12 -11 14 -15 5 0 36 16 34 8 -1 17 -5 21 -8 3 -4 13 -4
22 -1 8 4 13 2 9 -3 -3 -5 3 -10 13 -10 12 0 16 5 12 16 -5 12 -3 13 9 3 11
-9 18 -8 33 3 10 7 23 11 29 7 6 -3 7 -1 4 4 -7 10 20 28 36 25 4 -1 7 3 7 9
0 5 5 7 10 4 6 -3 10 -1 10 4 0 6 9 11 21 11 12 0 17 4 13 11 -5 8 -1 8 14 0
15 -8 23 -8 28 1 4 7 3 8 -4 4 -7 -4 -12 -3 -12 2 0 9 39 25 65 27 6 0 16 4
22 8 12 7 26 11 73 21 8 2 21 -2 29 -8 11 -8 13 -8 7 2 -5 8 0 12 16 14 36 2
42 3 53 10 20 12 66 6 61 -8 -6 -16 20 -39 29 -24 3 5 3 14 0 20 -4 6 1 7 11
3 13 -5 15 -3 9 8 -5 9 -2 8 10 -3 20 -18 11 -42 -12 -34 -10 4 -13 2 -10 -8
4 -11 1 -13 -11 -9 -22 9 -42 35 -35 47 4 5 1 6 -6 2 -8 -5 -9 -12 -3 -19 5
-7 8 -20 7 -29 -2 -10 2 -21 7 -25 6 -3 8 -2 5 4 -3 5 0 10 8 10 11 0 12 -4 3
-14 -6 -7 -13 -12 -15 -10 -2 2 -20 -12 -41 -31 -39 -38 -119 -79 -164 -84
-39 -5 -47 -18 -12 -19 69 -3 91 -2 122 4 21 4 31 3 27 -3 -3 -6 -14 -10 -24
-10 -10 0 -21 -3 -24 -7 -4 -3 -19 -8 -33 -9 -15 -2 -34 -6 -43 -10 -18 -8
-23 -9 -66 -19 -43 -9 -60 -13 -60 -15 0 -1 -13 -4 -30 -6 -16 -3 -32 -8 -35
-12 -3 -4 -9 -7 -15 -8 -39 -3 -94 -18 -89 -25 3 -5 -1 -7 -8 -4 -7 3 -33 -2
-58 -10 -44 -14 -42 -14 55 -8 55 3 126 6 157 7 32 0 58 4 58 7 0 3 26 5 58 4
31 -1 65 3 76 8 12 6 21 5 26 -3 4 -7 10 -8 13 -3 4 6 20 10 37 11 27 1 28 -1
15 -14 -19 -20 -19 -30 0 -14 8 7 15 9 15 4 0 -4 6 0 13 9 6 10 30 19 52 22
22 2 61 8 87 13 26 5 50 7 53 4 3 -3 5 -1 5 4 0 5 14 9 30 10 33 1 40 -11 11
-21 -10 -3 -30 -19 -44 -35 -24 -27 -91 -65 -109 -62 -3 1 -12 -5 -18 -13 -7
-8 -21 -15 -31 -15 -11 0 -19 -5 -19 -11 0 -5 -5 -7 -10 -4 -6 3 -13 -1 -16
-9 -3 -9 -10 -13 -15 -10 -5 3 -9 1 -9 -5 0 -6 -7 -8 -15 -5 -8 4 -15 1 -15
-5 0 -6 -3 -10 -7 -9 -14 4 -83 -26 -83 -35 0 -4 -3 -6 -7 -4 -5 3 -17 1 -28
-4 -14 -6 -6 -8 28 -7 26 1 47 5 47 9 0 9 20 6 39 -5 9 -6 12 -5 8 1 -4 6 6
13 23 15 17 3 30 3 30 2 0 -1 -20 -13 -45 -25 -25 -12 -45 -26 -45 -31 0 -4
-4 -7 -8 -5 -4 1 -25 -13 -47 -31 -22 -17 -35 -32 -29 -32 6 0 20 9 31 19 12
11 24 17 27 14 3 -4 6 0 6 7 0 7 3 11 6 8 3 -4 32 7 65 23 33 17 64 27 69 24
6 -3 10 -2 10 3 0 6 17 13 38 18 43 9 51 11 55 14 1 1 9 3 17 5 43 9 87 16
105 18 11 2 25 5 30 8 6 3 20 3 33 0 21 -6 19 -10 -43 -101 -35 -52 -79 -115
-97 -139 l-32 -45 72 57 c40 32 95 79 123 105 152 140 140 132 168 114 14 -10
33 -24 41 -33 15 -14 14 -17 -6 -32 -13 -9 -28 -17 -33 -17 -6 0 -11 -5 -11
-12 0 -6 -3 -9 -6 -5 -3 3 -23 -1 -45 -8 -22 -8 -42 -14 -45 -14 -3 0 -9 -2
-12 -6 -8 -8 104 1 135 10 l22 7 -20 -72 c-26 -94 -80 -201 -130 -255 l-40
-43 43 5 c24 3 49 6 56 6 6 0 12 3 12 7 0 4 7 7 15 8 8 1 22 3 30 4 8 1 15 5
15 8 0 7 58 24 73 21 4 0 7 3 7 8 0 7 15 14 50 22 3 0 10 5 17 10 14 12 21 -8
25 -68 2 -53 14 -55 23 -5 18 100 28 117 80 133 6 1 16 9 23 16 13 12 32 18
32 9 0 -9 -97 -186 -137 -251 l-44 -70 83 86 c46 47 110 117 143 156 81 94
128 132 157 126 21 -4 23 -9 23 -71 0 -70 -10 -112 -26 -112 -5 0 -9 -7 -9
-15 0 -8 -3 -15 -8 -15 -4 0 -16 -16 -26 -35 -11 -19 -23 -35 -28 -35 -5 0
-12 -8 -15 -17 -4 -10 -26 -37 -50 -60 -23 -24 -40 -43 -37 -43 3 0 -14 -16
-38 -36 -23 -20 -44 -40 -46 -45 -2 -5 -10 -9 -18 -9 -9 0 -13 -4 -10 -9 6 -9
-22 -26 -36 -23 -5 1 -8 -2 -8 -7 0 -5 -14 -14 -30 -21 -17 -7 -33 -16 -36
-21 -6 -10 65 19 84 33 6 6 12 7 12 4 0 -8 124 75 128 86 2 4 8 8 14 8 10 0
33 19 120 103 27 26 54 47 59 47 6 0 8 4 4 9 -3 5 3 16 12 23 10 7 33 30 51
51 17 21 32 35 32 31 0 -3 -14 -36 -32 -73 -18 -36 -31 -69 -30 -73 1 -5 -3
-8 -8 -8 -6 0 -10 -6 -10 -14 0 -8 -12 -24 -26 -35 -15 -12 -23 -21 -18 -21 5
0 -2 -9 -16 -20 -14 -10 -22 -21 -19 -24 3 -3 18 7 34 21 27 26 28 26 23 5 -4
-12 -2 -20 3 -16 5 3 9 12 9 20 0 8 5 12 10 9 6 -3 10 0 10 7 0 18 135 145
222 208 22 16 37 30 32 30 -5 1 3 8 19 16 15 8 27 19 27 24 0 6 6 9 13 7 6 -1
11 4 10 11 -2 6 3 12 11 12 8 0 17 9 21 20 3 11 9 19 13 18 4 -2 20 10 36 25
16 15 32 24 36 20 3 -5 12 -42 18 -83 7 -41 24 -113 39 -159 21 -69 23 -85 12
-92 -8 -5 -9 -9 -4 -9 6 0 4 -4 -4 -9 -8 -5 -16 -18 -17 -28 -2 -9 -8 -19 -13
-21 -6 -2 -11 -10 -11 -18 0 -8 -7 -17 -15 -20 -8 -4 -12 -10 -9 -15 3 -5 1
-9 -4 -9 -6 0 -13 -8 -16 -17 -6 -15 -4 -14 16 2 42 35 68 64 68 75 0 6 4 9 8
6 5 -3 15 6 22 19 7 14 17 25 22 25 4 0 8 7 8 15 0 8 3 15 8 15 8 0 12 6 60
104 30 59 38 82 41 109 1 4 5 7 10 7 9 0 25 -62 24 -93 0 -12 3 -15 9 -9 14
14 15 107 2 190 -11 71 -10 76 9 95 l21 21 24 -74 c15 -50 22 -93 20 -127 -2
-28 0 -49 4 -47 16 10 31 93 33 180 1 50 5 96 9 102 14 23 22 3 20 -45 -1 -26
-3 -76 -4 -110 -2 -34 -6 -61 -9 -59 -3 2 -6 -15 -5 -37 0 -23 -2 -46 -5 -52
-2 -5 -6 -21 -8 -35 -2 -26 -8 -60 -17 -95 -9 -39 -27 -110 -32 -130 -3 -11
-7 -31 -8 -45 -1 -14 -5 -30 -9 -36 -3 -6 -8 -21 -11 -35 -3 -13 -8 -35 -11
-49 -21 -83 -37 -159 -38 -187 -1 -18 -5 -33 -9 -33 -5 0 -8 -4 -8 -10 0 -5 4
-10 10 -10 12 0 31 70 23 83 -3 6 -1 7 5 3 11 -6 17 12 13 36 0 5 3 8 7 8 7 0
11 16 14 58 1 6 5 12 10 12 4 0 8 4 8 9 0 5 5 22 12 38 6 15 13 37 15 48 2 10
8 22 14 26 6 3 10 8 8 10 -1 2 6 29 16 59 11 30 20 57 20 60 1 3 8 19 15 35 7
17 14 41 16 55 2 14 8 26 14 28 5 2 7 8 4 13 -3 6 -1 15 4 22 6 7 10 15 10 20
1 23 26 117 32 117 4 0 6 12 4 27 -1 15 0 32 4 37 3 6 7 17 8 26 13 100 17
142 18 180 1 42 23 80 47 80 9 0 78 -88 80 -101 1 -5 2 -12 3 -16 4 -16 19
-99 22 -123 21 -147 20 -160 -12 -213 l-27 -42 32 29 c17 16 33 28 35 25 2 -2
6 -35 10 -74 3 -38 9 -90 12 -115 3 -25 7 -54 9 -65 1 -11 4 -21 5 -22 3 -4 5
-10 14 -56 5 -20 12 -40 18 -43 5 -3 4 -13 -4 -22 -12 -15 -11 -16 4 -3 12 9
15 18 9 30 -4 9 -9 39 -11 66 -1 28 -3 64 -4 80 -2 17 2 36 7 43 6 8 5 12 -2
12 -7 0 -9 5 -5 11 3 6 7 48 7 93 1 44 6 84 12 88 6 5 6 8 -2 8 -10 0 -9 47 2
58 2 2 0 15 -5 28 -6 15 -6 24 0 24 5 0 6 7 3 17 -4 10 -2 14 5 9 7 -4 8 2 3
22 -5 15 -9 59 -9 98 0 38 -1 71 -2 74 -3 11 -9 47 -14 90 -3 25 -8 58 -11 75
l-6 30 23 -21 c13 -11 34 -30 46 -41 19 -17 24 -33 26 -85 2 -34 0 -75 -5 -90
-4 -16 -3 -30 2 -34 5 -3 6 -11 2 -17 -12 -20 -10 -249 3 -307 7 -30 13 -55
13 -55 2 0 24 -62 23 -67 -1 -5 3 -8 8 -8 6 0 10 -6 8 -12 -1 -7 8 -33 21 -58
12 -25 19 -34 16 -20 -4 14 -7 31 -7 38 -1 6 -6 12 -12 12 -6 0 -4 5 4 10 8 5
10 10 5 10 -6 0 -12 12 -13 27 -1 15 -5 29 -10 32 -4 3 -8 17 -10 31 -6 49 -2
212 5 223 4 7 6 20 4 31 -1 10 1 16 6 13 4 -3 7 11 7 31 -1 21 3 42 8 48 5 7
8 16 6 20 -5 21 14 107 22 94 7 -12 5 -146 -3 -180 -2 -8 -7 -33 -12 -55 -4
-22 -10 -44 -13 -50 -10 -17 -9 -44 3 -48 6 -3 11 3 12 12 1 15 9 49 13 61 1
3 2 8 1 13 0 4 3 7 7 7 8 0 32 64 33 87 0 5 5 14 11 21 6 6 7 12 3 12 -4 0 -2
7 5 15 7 9 10 18 7 22 -4 3 -2 13 3 22 5 10 5 23 0 31 -5 8 -5 19 0 25 14 17
27 115 29 225 l2 65 26 -50 c31 -58 51 -137 47 -180 -3 -30 -3 -30 7 -5 19 44
4 159 -32 246 -17 43 -36 85 -42 92 -19 24 0 22 21 -3 12 -14 20 -25 17 -25
-6 0 23 -35 49 -61 11 -11 17 -19 13 -19 -6 0 14 -25 64 -79 8 -10 19 -25 22
-35 4 -9 12 -14 17 -11 6 4 9 1 8 -5 -2 -6 16 -22 40 -35 49 -29 54 -24 14 13
-24 23 -42 51 -46 72 -2 8 -46 102 -62 131 -7 14 -11 29 -7 33 3 3 2 6 -4 6
-5 0 -16 18 -23 40 -7 22 -17 40 -22 40 -4 0 -8 9 -8 20 0 11 -3 20 -8 20 -4
0 -13 15 -21 33 -8 17 -21 40 -29 50 -8 9 -13 19 -11 22 7 6 109 -46 109 -56
0 -5 5 -9 11 -9 6 0 16 -6 23 -13 8 -7 33 -29 56 -48 23 -18 59 -48 79 -66 20
-18 48 -37 63 -44 15 -6 25 -15 22 -20 -3 -5 -2 -8 3 -7 4 1 23 -6 41 -15 28
-15 32 -16 32 -2 0 8 -3 14 -8 12 -4 -1 -25 18 -47 43 -22 25 -43 47 -47 48
-5 2 -8 10 -8 18 0 8 -4 14 -10 14 -5 0 -10 6 -10 14 0 8 -3 16 -7 18 -12 5
-53 66 -53 78 0 5 -4 10 -10 10 -5 0 -10 6 -10 14 0 8 8 15 18 15 9 0 37 2 62
5 76 9 133 16 170 20 19 3 52 6 73 7 21 2 43 10 49 18 10 13 10 14 -1 4 -9 -8
-21 -9 -37 -3 -13 5 -24 7 -24 4 0 -2 -10 0 -21 7 -17 9 -20 8 -13 -3 6 -10 5
-11 -7 -2 -8 6 -24 10 -36 9 -13 -1 -23 2 -23 6 0 4 -9 5 -19 2 -10 -3 -28 0
-40 6 -13 7 -21 8 -21 2 0 -6 -10 -7 -27 -1 -16 5 -44 12 -63 15 -19 3 -48 9
-65 11 -16 3 -36 6 -42 7 -7 0 -13 4 -13 9 0 4 -3 7 -7 6 -5 -1 -24 4 -43 11
-19 8 -38 13 -42 12 -5 0 -8 4 -8 10 0 18 158 6 200 -14 l35 -17 -31 28 c-17
15 -39 32 -49 38 -23 13 -29 12 145 13 197 0 220 -1 220 -11 0 -5 9 -6 20 -3
12 4 27 1 35 -5 8 -7 15 -9 15 -5 0 4 7 2 15 -5 8 -7 15 -8 15 -3 0 12 -56 44
-64 36 -3 -3 -6 -2 -6 4 0 8 -52 25 -80 25 -3 0 -14 5 -25 11 -11 6 -29 12
-40 14 -11 1 -29 5 -40 7 -11 2 -26 5 -32 5 -7 1 -13 5 -13 9 0 10 3 10 90 16
42 2 68 0 72 -8 6 -8 8 -7 8 2 0 7 5 10 12 6 6 -4 27 -9 47 -11 19 -2 38 -9
42 -14 3 -6 10 -11 15 -12 5 -1 8 -5 7 -9 -2 -5 3 -8 10 -8 18 0 18 31 0 48
-7 7 -13 10 -13 5 0 -4 -5 0 -11 9 -5 10 -17 18 -25 18 -9 0 -22 7 -30 15 -14
13 -13 16 3 21 96 31 234 106 268 145 l20 23 -32 -23 c-33 -23 -154 -67 -208
-77 -16 -3 -48 -10 -70 -15 -22 -6 -72 -12 -113 -14 l-73 -3 3 26 c2 19 -4 30
-22 40 -25 14 -25 14 8 8 42 -7 41 -1 -6 23 -45 23 -131 36 -234 36 -43 0 -78
3 -78 8 0 4 8 7 18 8 9 0 24 2 32 4 8 1 35 6 60 10 25 3 59 9 75 11 17 3 65 7
107 9 64 2 80 0 97 -17 32 -29 25 -5 -9 30 -16 18 -30 37 -30 42 0 6 -4 8 -10
5 -5 -3 -10 -1 -10 5 0 6 -4 8 -10 5 -5 -3 -10 0 -10 7 0 8 -3 9 -8 3 -8 -12
-42 -16 -42 -5 0 4 -16 7 -35 5 -19 -1 -35 2 -35 6 0 4 8 8 18 8 9 0 44 3 77
7 33 3 65 7 72 7 23 1 2 17 -23 17 -13 0 -24 3 -24 8 0 4 -19 8 -43 10 -40 2
-82 9 -82 12 0 1 -20 4 -45 6 -24 3 -47 8 -50 12 -5 7 -12 8 -67 14 -40 4 -25
24 30 38 28 8 57 15 62 17 6 1 19 4 30 5 11 2 23 7 26 12 11 14 152 13 156 -1
3 -7 10 -13 16 -13 6 0 0 11 -13 25 -12 13 -27 22 -31 19 -5 -3 -9 -1 -9 4 0
8 -14 12 -52 13 -10 0 -20 4 -23 10 -4 5 -12 9 -18 9 -7 0 -6 -4 3 -10 11 -7
8 -8 -13 -6 -15 1 -30 6 -35 11 -4 4 -2 5 5 1 6 -3 14 -2 17 3 5 7 42 19 81
26 6 1 23 7 38 13 16 7 34 12 40 12 7 0 25 7 41 15 15 8 40 17 55 20 14 2 27
9 29 15 2 5 8 8 12 5 5 -3 18 -1 30 5 11 5 29 15 40 20 11 6 27 10 35 10 8 0
15 5 15 11 0 5 4 8 9 5 4 -3 17 1 27 9 18 14 18 14 -3 10 -19 -3 -38 -6 -138
-21 -71 -10 -104 -14 -170 -18 l-70 -5 58 30 c31 16 57 31 57 33 0 2 -26 -3
-57 -10 -32 -7 -69 -15 -83 -18 -14 -2 -59 -11 -100 -20 -91 -19 -210 -32
-210 -22 0 4 16 27 35 50 19 24 32 46 28 49 -3 4 1 7 10 7 10 0 14 5 11 15 -4
8 -2 15 3 15 5 0 20 29 33 64 14 35 29 62 34 58 5 -3 7 2 3 11 -8 22 18 48 96
91 37 20 79 48 93 61 15 14 30 22 34 20 4 -3 10 2 14 10 3 8 12 15 20 15 7 0
16 7 20 15 3 8 15 15 26 15 11 0 20 4 20 9 0 5 9 11 20 14 13 3 20 0 20 -9 0
-8 -4 -14 -10 -14 -5 0 -10 -5 -10 -12 0 -6 9 -3 20 7 20 18 27 44 13 46 -34
6 -53 5 -53 -2 0 -5 -3 -8 -7 -7 -5 1 -25 -6 -47 -15 -21 -9 -42 -17 -47 -17
-5 0 -9 -4 -9 -10 0 -5 -9 -10 -19 -10 -11 0 -26 -7 -35 -15 -8 -8 -22 -15
-30 -15 -9 0 -16 -4 -16 -9 0 -5 -12 -12 -27 -16 -15 -3 -31 -12 -35 -18 -6
-9 -8 -8 -8 1 0 7 -3 11 -7 9 -5 -3 -8 45 -7 106 0 86 -4 122 -17 155 -23 53
-31 55 -13 2 16 -46 11 -74 -21 -140 -21 -42 -104 -131 -167 -179 -33 -26 -38
-26 -33 0 12 62 23 239 15 244 -3 2 -7 21 -8 41 -2 21 -6 41 -10 44 -4 3 -9
14 -10 25 -2 11 -8 22 -13 23 -5 2 -7 7 -4 12 3 5 -1 14 -8 22 -7 7 -21 25
-31 41 -11 16 -27 27 -41 27 -13 0 -25 5 -27 12 -2 6 -12 12 -21 14 -9 1 -14
-2 -11 -8 3 -5 8 -7 11 -4 2 2 13 -4 24 -15 19 -19 19 -20 -6 -62 -13 -24 -45
-97 -70 -162 -24 -65 -47 -120 -49 -123 -3 -2 -11 7 -17 21 -10 22 -7 46 24
154 55 199 60 227 53 316 -3 45 -7 116 -10 158 -3 52 -10 86 -23 105 -18 28
-18 28 -21 5 -2 -13 0 -26 5 -30 8 -5 8 -15 4 -67 0 -8 -4 -13 -8 -11 -5 3 -9
-10 -10 -29 -3 -53 -6 -64 -16 -64 -6 0 -8 -3 -5 -6 9 -8 -65 -154 -96 -189
-14 -16 -26 -34 -26 -38 0 -4 -10 -2 -22 4 -13 7 -25 13 -28 13 -6 1 -4 24 5
76 9 51 13 210 6 210 -4 0 -8 12 -9 28 -1 15 -7 29 -12 30 -16 6 -12 23 20 86
17 32 30 65 30 73 0 8 7 28 16 44 8 17 14 33 11 35 -2 2 -19 -24 -37 -58 -44
-84 -90 -134 -90 -97 0 6 -7 17 -15 25 -8 9 -15 12 -15 7 0 -4 -7 3 -16 15 -8
12 -30 29 -47 38 -24 11 -27 11 -15 1 10 -8 15 -17 11 -20 -3 -4 1 -7 11 -7 9
0 14 -4 11 -10 -3 -5 -2 -10 3 -10 4 0 20 -17 34 -39 l25 -39 -42 -43 c-23
-24 -62 -67 -87 -96 l-46 -51 -45 156 c-26 87 -51 184 -57 217 -20 104 -42
175 -53 168 -6 -4 -8 0 -4 10 3 9 0 18 -9 21 -8 3 -19 16 -25 30 -6 13 -19 27
-28 30 -9 3 -22 9 -30 12 -8 4 -12 2 -9 -5 2 -7 6 -11 8 -10 11 6 48 -35 43
-47 -3 -8 0 -14 6 -14 6 0 11 -10 11 -23 0 -13 6 -29 13 -36 10 -11 9 -12 -2
-6 -10 6 -12 4 -5 -6 15 -24 21 -158 11 -244 -11 -89 -17 -130 -24 -150 -4
-11 -7 -22 -8 -25 -1 -5 -8 -36 -21 -90 -4 -14 -7 -34 -8 -45 -1 -11 -7 -29
-13 -40 -12 -22 -13 -26 -13 -57 0 -12 -3 -18 -7 -15 -3 4 -8 107 -10 230 -2
122 -5 233 -7 247 -2 14 -4 55 -5 93 0 37 -5 67 -9 67 -5 0 -9 -6 -9 -12 -1
-7 -4 -31 -7 -53 -8 -51 -19 -119 -21 -125 -1 -3 -7 -38 -15 -77 -12 -68 -18
-78 -45 -74 -5 1 -2 -5 9 -13 18 -15 18 -15 -1 -13 -17 1 -19 10 -20 76 -2
119 -9 196 -18 211 -5 8 -4 11 3 7 5 -4 2 11 -9 32 -10 22 -19 45 -19 51 0 18
-51 88 -76 105 -29 19 -32 2 -4 -27 11 -12 20 -29 20 -38 0 -9 3 -20 7 -24 10
-10 12 -36 3 -36 -5 0 -13 15 -19 33 -6 17 -20 43 -31 57 l-20 25 14 -40 c15
-45 19 -168 5 -159 -5 3 -9 0 -9 -6 0 -6 -4 -8 -10 -5 -5 3 -10 1 -10 -5 0 -6
-4 -8 -10 -5 -18 11 -51 14 -45 4 4 -5 10 -7 15 -4 5 3 11 1 15 -4 7 -12 -36
-5 -44 6 -9 12 -61 13 -61 1 0 -5 5 -6 10 -3 6 3 10 1 10 -5 0 -10 -40 -7 -59
4 -5 4 -13 1 -17 -5 -4 -7 -3 -9 4 -5 6 3 13 2 16 -3 4 -5 -2 -8 -11 -6 -10 1
-17 8 -15 15 2 7 -3 17 -10 22 -8 6 -4 7 12 3 24 -7 24 -7 5 8 -11 8 -24 13
-30 10 -5 -4 -6 -2 -2 2 11 13 38 15 31 3 -4 -7 -2 -8 4 -4 6 3 9 15 7 26 -2
12 1 17 10 14 7 -3 16 0 21 7 4 7 3 10 -2 6 -5 -3 -15 6 -22 21 -9 19 -9 23 0
14 7 -7 19 -12 28 -12 12 0 12 2 2 9 -8 4 -13 12 -12 17 3 18 33 43 44 37 6
-4 5 1 -3 10 -12 15 -12 17 2 12 18 -8 32 11 16 21 -8 5 -9 3 -4 -6 5 -9 4
-11 -4 -6 -15 9 -5 26 16 26 9 0 13 6 10 14 -7 19 17 28 34 13 11 -10 11 -9 0
5 -7 10 -18 15 -25 12 -6 -3 -3 1 6 9 10 8 15 17 11 20 -3 4 1 7 9 7 9 0 19 7
22 16 3 9 11 12 18 8 8 -5 8 -1 -1 10 -10 11 -11 20 -5 24 6 4 13 15 17 24 4
12 13 16 24 12 14 -5 15 -4 4 4 -8 6 -14 23 -15 39 -1 15 -5 26 -11 23 -5 -3
-9 -8 -8 -12 2 -4 -3 -5 -11 -2 -15 6 -30 -12 -31 -36 0 -8 -8 -14 -17 -14
-10 1 -18 -4 -18 -11 0 -8 -9 -17 -20 -20 -11 -3 -20 -11 -20 -17 0 -6 7 -5
18 3 15 12 16 12 5 -2 -7 -9 -9 -19 -5 -24 4 -4 -4 -2 -18 5 -22 12 -24 12
-12 -2 10 -13 10 -18 1 -24 -7 -4 -9 -3 -6 3 3 5 0 10 -8 10 -10 0 -11 -5 -5
-17 6 -12 4 -16 -11 -17 -10 -1 -29 -12 -41 -25 -15 -15 -18 -17 -8 -4 14 19
13 19 -1 8 -9 -6 -18 -9 -22 -6 -3 3 -4 -6 -3 -20 2 -14 -2 -24 -8 -23 -6 1
-10 -3 -9 -10 2 -7 -4 -10 -12 -7 -8 4 -15 2 -15 -3 0 -5 -7 -10 -16 -10 -14
0 -14 2 2 14 10 7 13 13 6 13 -16 0 -41 -40 -35 -56 3 -8 0 -14 -7 -14 -6 0
-8 5 -4 11 4 7 1 10 -7 7 -8 -3 -13 -12 -11 -19 3 -11 1 -11 -9 -2 -13 13 -39
7 -39 -9 0 -6 8 -4 18 3 14 12 14 10 -2 -8 -10 -12 -21 -21 -25 -21 -17 5 -51
-15 -44 -25 4 -8 1 -7 -9 1 -13 10 -18 10 -24 1 -4 -7 -3 -9 3 -6 5 3 10 0 10
-8 0 -8 -4 -12 -8 -9 -4 2 -9 0 -11 -5 -1 -5 -12 3 -23 17 -15 21 -15 24 -2
13 11 -9 17 -10 18 -2 3 26 4 30 13 38 5 5 6 3 2 -4 -5 -9 0 -12 17 -11 20 2
24 7 22 35 -1 17 2 30 7 27 4 -3 8 0 8 6 0 6 5 8 10 5 6 -4 7 -11 4 -17 -4 -7
-2 -8 5 -4 6 4 9 11 6 16 -9 15 14 50 33 50 13 0 14 2 4 9 -10 6 -9 10 7 14
12 3 21 13 21 22 0 11 5 15 15 11 8 -3 15 -1 15 5 0 6 4 8 9 4 5 -3 12 -1 16
4 3 6 -3 8 -13 6 -11 -2 -19 3 -19 10 0 8 7 11 15 7 10 -3 13 -1 8 6 -10 16 6
15 23 0 11 -11 12 -10 6 0 -4 8 0 19 11 27 11 8 14 15 9 15 -6 0 -16 -5 -21
-10 -8 -8 -15 -5 -24 7 -11 14 -11 16 -1 6 11 -9 19 -8 37 4 13 8 29 11 36 7
7 -4 5 2 -5 13 -15 18 -16 22 -2 33 8 7 22 10 30 6 9 -3 13 -2 10 3 -3 6 3 14
12 20 14 8 15 11 3 12 -8 1 -18 1 -22 0 -5 0 -8 4 -8 11 0 6 -3 8 -6 5 -4 -4
-1 -14 7 -23 13 -16 12 -16 -10 -5 -19 11 -22 11 -16 0 6 -9 3 -11 -8 -6 -12
4 -14 2 -10 -11 6 -15 5 -15 -10 -3 -15 12 -17 12 -11 -4 5 -12 4 -16 -4 -11
-6 3 -14 1 -18 -5 -5 -8 -2 -10 7 -5 8 4 5 0 -6 -9 -11 -9 -28 -14 -38 -11
-14 3 -16 1 -7 -8 7 -10 6 -17 -5 -26 -8 -7 -15 -9 -15 -5 0 4 -6 2 -13 -4 -8
-6 -17 -8 -21 -4 -4 4 -9 -3 -13 -15 -6 -24 -14 -27 -29 -12 -8 8 -15 5 -25
-7 -13 -16 -12 -17 4 -4 15 12 17 12 11 -3 -3 -9 -15 -16 -26 -16 -12 0 -17
-4 -12 -12 4 -7 4 -10 -1 -6 -4 4 -14 0 -22 -10 -13 -16 -13 -15 -5 3 6 11 12
24 14 30 1 5 7 9 12 7 5 -2 6 4 2 13 -4 11 -2 14 6 9 7 -5 9 -2 6 8 -8 20 29
19 42 -2 6 -9 10 -10 10 -3 0 6 -4 15 -10 18 -15 10 -12 35 5 35 13 0 19 16
17 40 0 3 9 7 20 7 12 1 28 10 37 19 15 17 15 17 -1 5 -12 -9 -18 -10 -18 -3
0 6 10 17 23 23 27 15 38 30 32 46 -2 7 4 10 16 8 17 -3 18 -1 7 18 -10 21
-10 21 7 7 17 -14 18 -14 5 10 -12 22 -11 24 2 13 17 -15 29 -7 21 13 -3 8
-10 11 -17 7 -6 -4 -5 1 3 10 7 9 17 15 21 12 5 -3 11 -1 15 5 3 5 2 10 -4 10
-5 0 -8 8 -6 18 2 9 4 17 5 17 1 0 3 11 6 24 4 20 2 22 -11 11 -8 -7 -13 -16
-10 -20 3 -4 -2 -13 -10 -20 -8 -7 -13 -15 -11 -19 3 -4 -5 -8 -17 -8 -18 -2
-19 0 -7 8 12 9 11 10 -7 6 -15 -3 -20 -1 -16 9 3 8 9 12 14 9 4 -3 15 8 24
25 16 31 16 31 -4 21 -14 -8 -18 -17 -14 -29 6 -15 5 -15 -10 -3 -16 12 -21 9
-18 -12 1 -4 -6 -10 -14 -13 -8 -4 -15 -12 -15 -20 0 -8 -5 -14 -11 -14 -8 0
-8 -4 0 -13 8 -10 7 -14 -4 -14 -8 0 -12 4 -9 8 2 4 0 10 -6 14 -5 3 -10 1
-10 -5 0 -7 -6 -10 -14 -7 -10 4 -13 0 -11 -15 3 -16 0 -19 -15 -15 -17 4 -18
2 -9 -15 7 -13 7 -18 1 -14 -6 3 -12 3 -15 -1 -2 -5 -2 -2 0 5 1 7 -1 11 -6 7
-5 -3 -12 1 -15 7 -3 7 -3 -2 0 -21 4 -30 3 -32 -11 -17 -9 9 -22 16 -28 15
-9 0 -8 -2 1 -6 6 -2 12 -9 12 -14 0 -6 -5 -7 -12 -3 -7 5 -9 2 -6 -7 4 -10
-1 -15 -15 -16 -11 -1 -25 -7 -31 -13 -8 -8 -6 -9 9 -4 l20 7 -20 -16 c-23
-18 -39 -22 -30 -7 3 6 4 10 1 10 -3 0 -13 -15 -21 -32 -12 -26 -14 -28 -10
-8 3 14 2 19 -1 12 -3 -6 -10 -10 -14 -7 -5 3 -7 -3 -5 -14 3 -15 0 -18 -12
-14 -12 5 -15 2 -10 -10 3 -9 3 -16 -1 -15 -4 1 -17 -3 -28 -10 -12 -6 -25 -8
-29 -4 -5 4 -5 -1 -2 -10 4 -13 1 -16 -15 -13 -26 5 -37 16 -20 22 17 7 42 32
42 44 0 6 -6 7 -12 3 -9 -5 -9 -3 1 9 7 9 18 14 23 11 6 -4 5 3 -1 15 -9 17
-9 21 1 19 7 -2 12 3 11 10 -2 6 2 12 8 12 6 0 8 7 5 16 -3 8 -2 12 4 9 6 -3
10 -1 10 6 0 8 5 8 18 -2 14 -11 13 -10 -2 9 -18 21 -18 22 -1 22 14 0 15 3 5
15 -10 12 -8 14 8 10 17 -3 20 1 16 22 -4 20 -2 24 11 19 10 -3 14 -2 10 5 -4
5 -1 18 6 27 10 12 7 11 -10 -3 l-24 -20 16 26 c10 14 14 30 10 34 -5 5 1 3
11 -5 17 -14 18 -13 12 8 -5 13 -3 22 3 22 6 0 11 -4 11 -10 0 -5 5 -10 11
-10 8 0 7 5 -2 16 -7 8 -21 13 -31 11 -10 -3 -16 -1 -12 4 3 5 14 9 25 9 10 0
19 4 19 8 0 10 -30 9 -47 -1 -7 -5 -16 1 -23 12 -9 19 -43 22 -59 6 -3 -4 7
-4 22 -1 19 3 27 1 24 -7 -5 -15 -37 -16 -57 -2 -8 5 -6 -1 5 -14 l20 -24 -23
6 c-13 3 -21 3 -18 0 3 -4 0 -13 -7 -22 -10 -14 -10 -14 5 -3 12 10 18 10 24
1 4 -7 3 -9 -4 -5 -6 3 -14 1 -17 -5 -4 -5 -14 -8 -22 -5 -8 3 -12 2 -9 -2 2
-4 -3 -16 -11 -27 -15 -19 -15 -19 -8 3 6 21 5 22 -13 11 -12 -7 -18 -17 -15
-23 4 -5 -1 -7 -10 -3 -10 3 -17 2 -17 -4 0 -6 -5 -7 -10 -4 -6 4 -7 12 -3 18
4 7 0 6 -10 -2 -18 -15 -23 -26 -7 -16 6 3 10 1 10 -4 0 -6 -7 -11 -15 -11 -8
0 -15 -6 -15 -12 0 -9 -4 -8 -10 2 -6 10 -10 11 -10 3 0 -7 -5 -13 -11 -13 -5
0 -7 5 -4 10 3 6 1 10 -6 10 -7 0 -3 8 8 18 11 9 19 25 17 35 -1 10 2 14 8 11
7 -5 9 2 6 19 -5 28 13 53 32 42 5 -3 10 -1 10 4 0 6 -9 11 -19 11 -11 0 -23
4 -26 10 -3 6 1 7 9 4 9 -3 16 -1 16 6 0 6 4 8 10 5 6 -3 7 1 4 9 -4 10 -1 16
7 16 7 0 9 3 6 6 -4 4 -14 1 -24 -7 -17 -13 -17 -13 0 14 17 26 17 28 0 35
-21 8 -29 32 -11 32 9 0 8 3 -2 10 -9 5 -19 5 -27 -2 -11 -9 -10 -14 3 -29 9
-10 14 -24 11 -31 -4 -8 -6 -7 -6 5 -1 9 -6 17 -11 17 -6 0 -8 -11 -4 -25 4
-17 1 -27 -9 -31 -9 -3 -13 -13 -10 -25 3 -11 0 -19 -6 -19 -7 0 -9 6 -6 13 4
6 0 4 -8 -5 -8 -10 -16 -17 -18 -15 -2 1 3 -4 11 -12 13 -11 12 -12 -7 -6 -18
5 -22 3 -17 -9 5 -12 2 -15 -11 -9 -15 5 -17 2 -13 -15 4 -15 2 -19 -8 -15 -8
3 -14 -1 -14 -11 0 -9 -4 -16 -10 -16 -14 0 -12 12 6 38 8 12 12 22 7 21 -4
-1 -17 2 -27 6 -19 8 -19 9 0 15 17 6 16 9 -11 24 -17 10 -21 14 -10 11 38
-12 56 -14 50 -4 -4 5 -11 7 -16 4 -5 -4 -9 -2 -9 4 0 5 -3 17 -6 25 -5 12 -2
15 12 10 17 -5 17 -5 2 6 -10 6 -15 17 -11 28 4 13 2 13 -11 -3 -13 -16 -15
-17 -10 -2 7 19 -11 24 -22 5 -4 -7 -3 -8 5 -4 6 4 10 4 9 -1 -1 -4 3 -19 10
-33 12 -23 12 -24 -2 -6 -14 17 -16 17 -16 4 0 -9 -5 -20 -11 -24 -8 -4 -9 1
-4 16 5 17 4 21 -5 15 -9 -6 -11 -4 -5 6 13 20 15 60 3 53 -6 -4 -14 -1 -18 6
-10 17 -1 42 12 34 6 -4 6 -9 -2 -14 -9 -5 -9 -9 -1 -14 6 -4 11 -1 11 6 1 8
6 6 15 -6 8 -11 17 -17 20 -15 3 3 -5 16 -17 29 -12 13 -23 29 -24 36 -1 7 -7
20 -13 31 -11 16 -11 16 -6 -4 3 -12 2 -24 -4 -27 -5 -3 -8 -19 -7 -35 2 -22
-2 -28 -14 -24 -13 4 -13 3 0 -5 12 -9 11 -14 -5 -33 -11 -12 -15 -19 -8 -16
6 4 14 3 18 -3 3 -5 1 -10 -4 -10 -6 0 -11 -11 -11 -25 0 -14 -5 -25 -12 -25
-6 0 -8 -3 -4 -7 3 -4 -4 -13 -16 -21 -22 -13 -22 -13 7 -7 24 4 27 3 12 -5
-9 -6 -15 -15 -12 -21 4 -5 1 -9 -6 -9 -7 0 -9 -3 -6 -7 4 -3 2 -12 -4 -20 -6
-7 -8 -13 -3 -13 5 -1 -2 -7 -16 -15 -14 -8 -19 -14 -12 -15 6 0 12 -5 12 -12
0 -6 -3 -9 -6 -5 -7 7 -34 -15 -28 -24 2 -3 -3 -6 -11 -6 -8 0 -12 8 -9 20 2
11 -1 29 -7 39 -7 12 -7 18 -1 14 5 -3 15 1 22 9 11 13 10 14 -3 9 -17 -6 -18
11 -3 35 6 9 5 12 -2 7 -6 -3 -14 -1 -18 5 -4 7 -3 9 3 6 6 -4 16 0 23 8 10
12 8 13 -10 10 -22 -4 -22 -4 -4 17 11 12 13 18 7 14 -8 -4 -13 -1 -13 9 0 9
4 14 8 11 5 -3 9 1 9 9 0 8 -4 12 -8 9 -12 -7 -17 20 -7 40 7 13 7 16 -1 12
-14 -9 -14 0 1 27 10 19 9 21 -4 9 -13 -10 -18 -10 -24 -1 -4 7 -3 9 3 6 6 -4
14 0 17 9 4 11 2 15 -6 11 -16 -6 -20 64 -4 76 7 6 4 7 -6 3 -10 -3 -18 -1
-18 4 0 6 6 10 13 10 8 0 7 3 -3 10 -21 13 -36 -5 -20 -25 15 -18 7 -19 -23
-4 -20 9 -20 9 -5 -4 14 -11 15 -16 5 -27 -9 -10 -9 -11 1 -6 7 4 12 1 12 -8
0 -9 -5 -16 -11 -16 -5 0 -7 -5 -3 -12 5 -8 1 -9 -12 -5 -19 7 -19 7 0 -8 11
-8 17 -18 13 -21 -4 -4 -1 -14 6 -22 10 -13 9 -15 -5 -9 -10 3 -20 2 -23 -4
-4 -5 -3 -9 2 -8 19 3 27 -2 14 -10 -8 -5 -20 -7 -28 -4 -11 4 -11 10 2 30 16
23 16 24 -3 14 -23 -12 -38 9 -19 28 8 8 8 11 -1 11 -7 0 -12 5 -12 11 0 5 4
8 8 5 4 -2 14 0 22 5 12 8 11 9 -5 7 -12 -2 -21 3 -21 12 -1 8 -2 21 -3 28 0
6 -9 12 -18 13 -15 0 -15 2 2 9 14 6 16 9 5 10 -8 2 -19 2 -23 1 -5 -1 -6 3
-2 9 3 6 12 7 18 3 7 -4 6 0 -2 10 -7 9 -18 14 -25 10 -6 -4 -3 5 7 20 16 25
16 26 0 21 -15 -5 -15 -3 2 11 19 15 19 16 -13 10 -22 -4 -31 -2 -27 5 3 5 12
10 20 10 8 0 16 4 19 9 3 5 -2 8 -12 7 -9 0 -16 4 -15 11 1 6 -11 16 -27 22
-17 5 -30 12 -30 15 0 3 11 1 25 -4 16 -6 27 -6 31 2 4 7 3 8 -4 4 -11 -6 -16
5 -13 26 0 4 -9 5 -22 3 -19 -4 -20 -3 -6 8 14 11 14 14 -3 32 -10 10 -16 26
-13 35 5 12 4 13 -6 3 -10 -10 -10 -16 -1 -25 7 -7 12 -16 12 -20 0 -15 -15
-8 -28 13 -10 16 -10 24 -1 35 6 8 9 14 6 14 -3 0 -9 -5 -12 -10z m-165 -105
c0 -1 -6 -7 -13 -13 -10 -8 -13 -6 -13 7 0 11 6 17 13 14 7 -3 13 -6 13 -8z
m-296 -23 c3 -5 -1 -9 -9 -9 -8 0 -15 4 -15 9 0 4 4 8 9 8 6 0 12 -4 15 -8z
m516 -163 c0 -14 -17 -10 -23 5 -4 10 -1 13 9 9 7 -3 14 -9 14 -14z m-360 -39
c0 -5 -5 -10 -11 -10 -5 0 -7 5 -4 10 3 6 8 10 11 10 2 0 4 -4 4 -10z m454 2
c3 -5 -1 -9 -9 -9 -8 0 -12 4 -9 9 3 4 7 8 9 8 2 0 6 -4 9 -8z m-367 -27 c0
-8 -4 -12 -9 -9 -5 3 -6 10 -3 15 9 13 12 11 12 -6z m-440 -20 c0 -8 -4 -12
-9 -9 -5 3 -6 10 -3 15 9 13 12 11 12 -6z m709 -50 c0 -24 1 -42 4 -40 3 2 11
-4 19 -12 12 -13 11 -14 -7 -8 -17 5 -21 3 -16 -9 3 -9 10 -14 14 -11 5 3 12
0 16 -6 4 -7 3 -9 -4 -5 -6 3 -13 2 -17 -4 -3 -5 0 -10 7 -10 9 0 9 -3 -2 -10
-13 -9 -13 -11 0 -21 13 -9 13 -10 -1 -6 -9 3 -22 0 -29 -6 -7 -7 -5 0 4 15
16 25 16 27 -1 37 -10 6 -13 11 -8 11 15 0 10 91 -6 102 -10 7 -9 8 6 4 19 -6
19 -5 3 7 -19 15 -14 29 7 21 8 -4 12 -21 11 -49z m199 35 c-3 -5 -11 -10 -16
-10 -6 0 -7 5 -4 10 3 6 11 10 16 10 6 0 7 -4 4 -10z m-449 -24 c1 -7 -4 -13
-12 -13 -9 0 -11 4 -4 12 5 7 8 15 5 18 -3 4 -2 5 2 2 4 -3 8 -11 9 -19z m891
-1 c0 -8 -4 -12 -9 -9 -5 3 -6 10 -3 15 9 13 12 11 12 -6z m-1723 -3 c2 -4 -5
-9 -17 -9 -17 -2 -19 0 -7 7 18 12 18 12 24 2z m791 -10 c-3 -3 -11 0 -18 7
-9 10 -8 11 6 5 10 -3 15 -9 12 -12z m-140 -2 c3 -6 -1 -7 -9 -4 -18 7 -21 14
-7 14 6 0 13 -4 16 -10z m185 -14 c0 -3 -4 -8 -10 -11 -5 -3 -10 -1 -10 4 0 6
5 11 10 11 6 0 10 -2 10 -4z m650 -5 c0 -5 -7 -12 -16 -15 -14 -5 -15 -4 -4 9
14 17 20 19 20 6z m-1410 -27 c0 -2 -7 -4 -15 -4 -8 0 -15 4 -15 10 0 5 7 7
15 4 8 -4 15 -8 15 -10z m954 8 c2 -4 -5 -9 -17 -9 -17 -2 -19 0 -7 7 18 12
18 12 24 2z m-172 -48 c-25 -18 -36 -5 -16 17 13 14 20 16 25 7 4 -7 0 -17 -9
-24z m402 20 c3 -8 2 -13 -2 -13 -4 1 -9 0 -12 -1 -3 -1 -13 -3 -23 -5 -14 -3
-16 0 -7 10 8 10 7 14 -2 18 -7 2 -1 4 14 4 15 0 29 -6 32 -13z m-388 -43 c0
-12 -6 -17 -18 -13 -18 4 -18 5 -1 18 10 7 18 14 18 14 1 0 1 -8 1 -19z m369
-1 c3 -6 -1 -7 -9 -4 -18 7 -21 14 -7 14 6 0 13 -4 16 -10z m282 -7 c-4 -3 -1
-13 6 -22 11 -14 10 -14 -5 -2 -16 12 -16 31 -1 31 4 0 3 -3 0 -7z m-1405 -25
c4 -8 2 -17 -7 -24 -19 -14 -19 -21 0 -21 8 0 12 4 10 8 -3 4 2 9 10 12 10 4
12 1 8 -10 -4 -10 -2 -14 4 -10 6 4 9 -4 7 -21 -2 -15 -1 -21 2 -14 8 17 25
15 18 -2 -3 -8 2 -17 13 -20 10 -3 20 -16 20 -28 1 -13 7 -24 13 -26 5 -2 10
-8 10 -13 0 -6 -6 -7 -12 -3 -8 5 -8 1 2 -12 22 -29 24 -30 17 -11 -4 9 -2 17
3 17 9 0 14 -29 13 -68 -1 -8 6 -11 21 -6 17 5 19 4 9 -7 -7 -7 -13 -17 -13
-22 0 -4 6 -5 13 -2 6 4 3 -1 -8 -10 -11 -9 -19 -21 -17 -27 2 -7 -3 -6 -13 2
-11 9 -12 16 -5 25 8 10 8 15 -1 21 -7 4 -9 3 -5 -4 4 -6 -1 -10 -13 -9 -11 0
-18 4 -15 8 2 4 -3 10 -12 13 -8 3 -12 11 -8 17 4 7 -2 7 -17 -1 l-23 -13 18
29 c10 16 13 24 6 17 -10 -9 -16 -8 -27 3 -8 8 -19 11 -25 8 -7 -4 -8 -2 -4 5
4 6 11 9 15 7 4 -3 8 1 8 9 0 7 -8 12 -18 10 -12 -3 -16 1 -12 11 3 7 10 11
16 7 6 -4 7 -1 3 6 -6 9 -13 8 -29 -6 -12 -9 -17 -11 -10 -4 8 10 9 20 2 33
-5 10 -7 18 -3 18 3 0 1 6 -5 13 -6 8 -8 17 -4 20 3 4 0 13 -7 22 -7 8 -9 15
-5 15 4 0 2 6 -4 14 -9 11 -8 15 4 20 9 3 14 10 10 15 -3 6 4 8 16 6 13 -3 26
-10 31 -17z m1845 3 c-1 -12 -7 -17 -19 -13 -10 2 -18 9 -18 14 0 5 4 7 9 3 5
-3 12 -1 16 5 9 15 14 12 12 -9z m-2213 -17 c3 -8 2 -12 -4 -9 -6 3 -10 10
-10 16 0 14 7 11 14 -7z m1815 -27 c-7 -12 -13 -24 -15 -26 -2 -2 2 41 5 57 1
2 6 0 11 -3 7 -4 6 -14 -1 -28z m-469 7 c0 -8 -19 -13 -24 -6 -3 5 1 9 9 9 8
0 15 -2 15 -3z m-1190 -46 c0 -19 -16 -5 -17 14 -2 18 0 20 7 8 5 -8 10 -18
10 -22z m688 -13 c-3 -3 -9 2 -12 12 -6 14 -5 15 5 6 7 -7 10 -15 7 -18z
m1687 -5 c4 -6 12 -7 18 -4 7 4 8 3 4 -1 -11 -13 -38 -15 -30 -2 4 6 0 8 -10
4 -10 -3 -17 -2 -17 3 0 13 27 13 35 0z m-1972 -7 c-7 -2 -19 -2 -25 0 -7 3
-2 5 12 5 14 0 19 -2 13 -5z m1537 -13 c0 -5 -5 -10 -11 -10 -5 0 -7 5 -4 10
3 6 8 10 11 10 2 0 4 -4 4 -10z m-46 -32 c-5 -8 -2 -9 9 -5 10 3 17 3 17 -2 0
-5 -9 -11 -20 -14 -14 -4 -18 -11 -14 -24 4 -13 3 -14 -4 -5 -7 11 -10 9 -15
-8 -5 -19 -8 -20 -26 -8 -11 7 -18 14 -16 17 3 2 12 -2 21 -10 16 -13 17 -12
12 9 -4 12 -2 20 2 17 8 -5 23 11 26 28 3 15 4 17 10 17 3 0 2 -5 -2 -12z
m-1411 -22 c3 -6 -3 -12 -13 -12 -10 0 -16 4 -14 8 3 4 0 8 -5 8 -6 0 -11 4
-11 9 0 13 38 2 43 -13z m1882 -46 c-3 -5 -12 -10 -18 -10 -7 0 -6 4 3 10 19
12 23 12 15 0z m-2595 -26 c0 -2 -9 0 -20 6 -11 6 -20 13 -20 16 0 2 9 0 20
-6 11 -6 20 -13 20 -16z m2068 4 c-2 -6 -10 -13 -16 -14 -7 -1 -8 0 -2 3 5 2
8 9 4 14 -3 5 0 9 6 9 7 0 10 -5 8 -12z m833 -75 c-12 -20 -14 -14 -5 12 4 9
9 14 11 11 3 -2 0 -13 -6 -23z m-2692 -33 c11 -24 11 -24 -3 -6 -9 11 -16 24
-16 30 0 12 5 7 19 -24z m-203 -15 c-3 -9 1 -18 9 -21 8 -4 15 -10 15 -16 0
-5 -6 -6 -12 -1 -7 4 -16 8 -20 8 -12 0 -2 45 9 45 3 0 2 -7 -1 -15z m2884 -9
c0 -2 -8 -10 -17 -17 -16 -13 -17 -12 -4 4 13 16 21 21 21 13z m-725 -15 c3
-5 2 -12 -3 -15 -5 -3 -9 1 -9 9 0 17 3 19 12 6z m-2112 -27 c-5 -13 -1 -15
13 -10 27 8 27 -28 -1 -44 -16 -10 -18 -10 -8 1 10 10 7 16 -14 30 -23 16 -25
19 -10 25 9 3 14 11 10 17 -3 6 -1 7 5 3 6 -4 8 -14 5 -22z m93 -40 c8 3 11 0
7 -10 -3 -8 -2 -14 3 -12 18 5 52 -26 46 -41 -5 -14 -3 -14 10 -3 14 11 18 10
27 -6 7 -14 7 -19 -4 -19 -8 0 -11 7 -7 16 4 12 0 11 -17 -4 -12 -11 -22 -15
-21 -10 6 29 -1 44 -20 40 -11 -2 -18 0 -15 6 4 5 -1 9 -10 9 -10 0 -13 -5 -9
-12 4 -7 -2 -4 -14 6 -12 11 -22 16 -22 12 0 -4 -5 -4 -12 0 -7 5 -5 11 7 21
11 7 13 13 6 13 -7 0 -9 5 -6 10 4 6 12 4 22 -5 9 -9 22 -14 29 -11z m-157
-21 c-3 -20 2 -34 10 -28 5 3 12 1 15 -4 4 -5 -1 -8 -10 -7 -18 3 -35 26 -28
38 6 10 14 10 13 1z m92 -80 c13 -16 12 -17 -3 -4 -10 7 -18 15 -18 17 0 8 8
3 21 -13z m2374 -22 c3 -5 1 -12 -4 -15 -5 -3 -11 1 -15 9 -6 16 9 21 19 6z
m-2305 -26 c0 -2 -6 -5 -13 -8 -8 -3 -14 1 -14 8 0 7 6 11 14 8 7 -3 13 -6 13
-8z m-475 -44 c3 -5 2 -12 -3 -15 -5 -3 -9 1 -9 9 0 17 3 19 12 6z m2715 -11
c0 -5 -4 -10 -10 -10 -5 0 -10 5 -10 10 0 6 5 10 10 10 6 0 10 -4 10 -10z
m230 -10 c-12 -23 -16 -24 -26 -8 -4 6 -3 8 3 5 6 -4 13 0 17 8 3 8 8 15 11
15 3 0 1 -9 -5 -20z m367 -2 c-3 -8 -6 -5 -6 6 -1 11 2 17 5 13 3 -3 4 -12 1
-19z m-407 -23 c4 3 11 -2 14 -10 4 -13 2 -14 -14 -5 -11 6 -20 16 -19 23 0 9
2 9 6 -1 2 -6 8 -10 13 -7z m-20 -20 c0 -2 -6 -5 -13 -8 -8 -3 -14 1 -14 8 0
7 6 11 14 8 7 -3 13 -6 13 -8z m-35 -25 c3 -5 1 -10 -4 -10 -6 0 -11 5 -11 10
0 6 2 10 4 10 3 0 8 -4 11 -10z m-2608 -22 c-3 -8 -6 -5 -6 6 -1 11 2 17 5 13
3 -3 4 -12 1 -19z m2989 -17 c0 -11 -5 -19 -11 -18 -5 1 -9 -4 -7 -10 1 -7 -1
-12 -5 -11 -5 1 -19 -4 -31 -11 -16 -8 -22 -19 -19 -32 4 -15 2 -17 -13 -9
-13 7 -21 6 -29 -4 -6 -7 -10 -15 -8 -17 1 -2 -5 3 -14 11 -9 8 -12 17 -6 19
5 2 3 7 -4 12 -12 8 -12 11 1 18 8 5 18 7 24 4 5 -4 7 1 3 9 -4 11 0 15 11 13
9 -1 16 -9 14 -16 -3 -10 1 -9 15 2 10 9 23 14 30 12 6 -2 14 1 18 6 3 7 0 8
-9 5 -9 -3 -16 -1 -16 6 0 6 5 8 10 5 6 -3 10 0 10 7 0 11 2 10 9 0 7 -11 9
-11 14 2 8 21 13 20 13 -3z m-71 -10 c3 -5 0 -13 -6 -17 -7 -4 -9 -3 -5 4 3 5
0 13 -6 15 -9 4 -10 6 -1 6 6 1 14 -3 18 -8z m-3170 -13 c15 1 17 -1 5 -8 -8
-5 -21 -5 -31 0 -9 5 -19 6 -23 3 -3 -3 -6 -1 -6 6 0 9 6 11 18 6 9 -4 26 -7
37 -7z m199 1 c-2 -4 2 -10 8 -13 7 -3 2 -3 -11 0 -13 4 -21 2 -18 -3 4 -5 0
-10 -7 -10 -11 0 -11 5 -4 17 6 9 17 17 24 17 7 0 11 -4 8 -8z m-69 -21 c-11
-7 -21 -6 -28 2 -9 8 -8 10 6 5 10 -4 17 -2 17 5 0 6 5 8 11 4 8 -5 6 -10 -6
-16z m92 -25 c0 -9 -4 -10 -14 -2 -7 6 -13 12 -13 14 0 1 6 2 13 2 8 0 14 -6
14 -14z m2983 7 c0 -5 -8 -10 -17 -10 -15 0 -16 2 -3 10 19 12 20 12 20 0z
m-2918 -44 c5 -7 8 -7 8 2 0 10 4 9 16 -3 13 -13 19 -13 32 -3 9 8 13 8 9 2
-4 -7 0 -14 8 -18 17 -6 20 -26 4 -26 -5 0 -7 5 -4 10 3 6 1 10 -4 10 -6 0
-11 -4 -11 -10 0 -5 -10 0 -21 11 -15 15 -23 18 -29 9 -5 -8 -9 -7 -13 4 -4 9
-12 14 -19 12 -7 -1 -9 -1 -5 2 4 2 0 11 -10 19 -16 13 -16 13 7 2 14 -7 28
-17 32 -23z m2953 -54 c-10 -70 -27 -132 -38 -139 -6 -3 -7 -1 -3 5 4 7 3 12
-2 12 -6 0 -13 -8 -16 -17 -6 -15 -8 -15 -23 -1 -8 9 -16 31 -17 50 -1 18 -5
38 -9 44 -8 14 24 14 43 1 12 -9 13 -9 3 3 -19 21 -16 30 10 30 12 0 18 4 12
8 -16 11 -15 29 0 29 8 0 12 -4 9 -8 -2 -4 0 -11 6 -14 6 -4 10 -3 9 2 -4 23
2 43 11 38 6 -4 9 -23 5 -43z m-256 16 c-5 -10 -14 -18 -20 -18 -6 0 -7 -4 -4
-10 3 -5 1 -10 -4 -10 -6 0 -11 5 -11 11 0 5 -6 7 -12 4 -7 -4 -4 1 7 10 11 9
19 20 18 24 -1 3 7 7 17 7 15 0 16 -4 9 -18z m1027 -96 c-3 -26 -5 -47 -6 -47
-1 0 -3 -7 -5 -15 -1 -8 -8 -33 -14 -55 -6 -22 -10 -44 -10 -49 0 -5 -3 -12
-8 -15 -4 -3 -19 -30 -32 -59 -26 -55 -59 -95 -48 -57 3 11 9 40 12 65 18 130
36 194 68 242 18 25 35 44 39 42 4 -3 6 -26 4 -52z m-585 -33 c-9 -23 -9 -22
-8 8 1 18 6 28 10 24 4 -4 3 -18 -2 -32z m-3099 14 c-6 -2 -10 -9 -6 -14 3 -5
-2 -9 -10 -9 -10 0 -13 6 -10 15 4 8 14 15 23 14 10 0 11 -2 3 -6z m-92 -17
c0 -2 -6 -9 -14 -15 -11 -9 -16 -9 -22 0 -4 7 -3 9 4 5 6 -3 13 -2 17 4 6 10
15 14 15 6z m2795 -26 c3 -5 1 -10 -4 -10 -6 0 -11 5 -11 10 0 6 2 10 4 10 3
0 8 -4 11 -10z m691 -13 c1 -7 4 -25 7 -42 5 -33 -7 -75 -21 -75 -5 0 -6 17
-3 38 4 20 6 52 6 69 -1 31 7 37 11 10z m-3676 -6 c0 -6 -4 -12 -8 -15 -5 -3
-9 1 -9 9 0 8 4 15 9 15 4 0 8 -4 8 -9z m35 -10 c-3 -6 -11 -11 -16 -11 -5 0
-4 6 3 14 14 16 24 13 13 -3z m57 -25 c7 4 8 2 4 -5 -10 -15 -26 -4 -25 17 1
15 2 15 6 -1 2 -9 9 -14 15 -11z m-175 -31 c0 -8 -4 -12 -9 -9 -4 3 -8 9 -8
15 0 5 4 9 8 9 5 0 9 -7 9 -15z m223 4 c0 -5 5 -7 12 -3 7 4 8 3 4 -4 -4 -6
-13 -9 -21 -5 -17 6 -20 23 -5 23 6 0 10 -5 10 -11z m47 -16 c-9 -2 -14 -9
-11 -15 4 -7 2 -8 -5 -4 -15 10 -4 26 17 25 15 -1 15 -2 -1 -6z m38 -23 c3 -6
-1 -7 -9 -4 -18 7 -21 14 -7 14 6 0 13 -4 16 -10z m-441 -93 c4 4 4 -1 0 -11
-6 -15 -4 -17 6 -11 8 5 11 4 6 -3 -4 -6 6 -18 24 -27 16 -8 30 -18 30 -21 0
-2 -9 0 -20 6 -11 6 -26 8 -33 4 -6 -4 -9 -4 -5 1 12 13 -13 37 -26 26 -8 -7
-11 -1 -11 19 -1 21 2 26 11 20 6 -6 14 -7 18 -3z m4266 -13 c0 -10 -65 -124
-71 -124 -4 0 -5 10 -4 23 1 12 3 22 4 22 2 0 4 10 7 23 7 39 24 62 44 62 11
0 20 -3 20 -6z m347 -34 c3 -16 9 -30 13 -30 7 0 7 0 13 -88 4 -66 2 -70 -46
-90 l-28 -12 2 70 c3 88 18 180 30 180 5 0 12 -13 16 -30z m-4517 6 c0 -3 -4
-8 -10 -11 -5 -3 -10 -1 -10 4 0 6 5 11 10 11 6 0 10 -2 10 -4z m317 -20 c0
-9 -7 -12 -16 -9 -13 5 -14 3 -4 -7 10 -11 9 -16 -5 -26 -9 -8 -21 -14 -26
-14 -6 0 -1 6 9 14 17 12 18 16 5 32 -8 10 -10 15 -5 12 6 -4 17 -3 25 3 8 5
15 9 16 9 0 0 1 -6 1 -14z m-357 -36 c0 -5 -2 -10 -4 -10 -3 0 -8 5 -11 10 -3
6 -1 10 4 10 6 0 11 -4 11 -10z m40 -6 c0 -8 -19 -13 -24 -6 -3 5 1 9 9 9 8 0
15 -2 15 -3z m300 -24 c-6 -11 -13 -20 -16 -20 -2 0 0 9 6 20 6 11 13 20 16
20 2 0 0 -9 -6 -20z m4225 -197 c-8 -25 -12 -50 -9 -55 3 -4 1 -8 -4 -8 -8 0
-20 -36 -26 -72 -1 -5 -5 -7 -11 -5 -6 1 -9 33 -8 75 2 63 5 76 25 92 40 33
49 26 33 -27z m281 -60 c-10 -10 -19 5 -10 18 6 11 8 11 12 0 2 -7 1 -15 -2
-18z m-16 -32 c-11 -22 -29 -35 -36 -28 -9 8 20 47 34 47 9 0 10 -5 2 -19z
m-4502 -99 c-7 -8 -15 -9 -21 -3 -6 6 -4 15 4 24 18 19 33 -1 17 -21z m-68
-46 c0 -3 -4 -8 -10 -11 -5 -3 -10 -1 -10 4 0 6 5 11 10 11 6 0 10 -2 10 -4z
m4441 -48 c-17 -16 -31 -34 -31 -39 0 -6 -4 -7 -10 -4 -5 3 -10 1 -10 -4 0 -6
-7 -11 -15 -11 -8 0 -15 9 -15 20 0 14 12 25 40 37 22 10 40 20 40 24 0 3 7 6
16 6 11 0 6 -9 -15 -29z m-4258 -7 c9 -10 8 -11 -8 -5 -16 6 -18 5 -7 -7 6 -7
12 -18 12 -23 0 -6 -5 -4 -10 4 -8 13 -10 12 -10 -3 0 -10 -4 -16 -9 -12 -5 3
-16 -4 -24 -15 -7 -11 -17 -17 -22 -12 -4 4 -6 0 -3 -8 4 -12 -1 -16 -17 -16
-13 0 -21 5 -19 11 3 5 -3 0 -14 -12 -20 -23 -33 -29 -31 -15 3 19 -2 29 -16
29 -10 0 -12 -4 -5 -12 8 -9 3 -12 -16 -9 -33 3 -40 10 -26 27 9 10 8 14 -3
14 -7 0 -14 -3 -13 -6 2 -21 -4 -30 -21 -28 -11 0 -17 5 -15 9 3 5 10 5 16 2
7 -4 8 -2 4 5 -4 6 -11 9 -15 7 -12 -8 -76 -18 -69 -11 3 4 12 8 20 9 30 6 46
18 42 31 -4 10 1 12 15 8 12 -3 29 1 38 8 10 8 14 9 10 2 -4 -6 -2 -15 4 -19
8 -4 9 -3 5 4 -4 7 -3 12 3 12 6 0 9 6 7 13 -1 6 -1 9 1 5 3 -5 14 -3 25 3 16
8 22 8 29 -2 4 -7 5 -17 3 -21 -3 -4 0 -8 6 -8 7 0 10 7 7 15 -4 8 -1 17 5 21
7 4 8 3 4 -4 -4 -8 0 -12 11 -12 11 0 25 -6 32 -12 11 -11 11 -9 0 9 -7 12
-17 19 -23 16 -5 -3 -6 -1 -3 4 4 6 19 8 33 5 16 -3 25 -1 21 5 -9 14 31 9 46
-6z m-328 -11 c3 -5 1 -10 -4 -10 -6 0 -11 5 -11 10 0 6 2 10 4 10 3 0 8 -4
11 -10z m95 -4 c0 -2 -7 -7 -16 -10 -8 -3 -12 -2 -9 4 6 10 25 14 25 6z m-63
-39 c-2 -6 -13 -12 -25 -14 -19 -2 -21 -1 -10 16 12 19 42 18 35 -2z m-107 4
c0 -6 -4 -12 -8 -15 -5 -3 -9 1 -9 9 0 8 4 15 9 15 4 0 8 -4 8 -9z m90 -61 c0
-5 -2 -10 -4 -10 -3 0 -8 5 -11 10 -3 6 -1 10 4 10 6 0 11 -4 11 -10z m77 -17
c-2 -5 7 -18 20 -30 13 -12 23 -17 23 -10 0 8 4 7 9 -3 20 -30 -2 -29 -34 2
-28 29 -36 48 -19 48 3 0 3 -3 1 -7z m143 -157 c0 -2 -7 -7 -16 -10 -8 -3 -12
-2 -9 4 6 10 25 14 25 6z m70 -26 c0 -5 -2 -10 -4 -10 -3 0 -8 5 -11 10 -3 6
-1 10 4 10 6 0 11 -4 11 -10z m-190 -24 c0 -3 -4 -8 -10 -11 -5 -3 -10 -1 -10
4 0 6 5 11 10 11 6 0 10 -2 10 -4z m276 -138 c4 -7 4 -10 -1 -6 -4 4 -15 2
-24 -5 -14 -11 -14 -10 -2 6 16 20 18 21 27 5z m-386 -37 c0 -14 -29 -21 -36
-9 -4 6 -3 8 4 4 6 -3 13 -2 17 4 8 12 15 13 15 1z m125 -1 c4 -6 2 -9 -4 -8
-5 2 -17 -6 -25 -17 -11 -13 -15 -15 -14 -5 2 8 10 20 18 27 19 15 18 15 25 3z
m29 -6 c3 -8 2 -12 -4 -9 -6 3 -10 10 -10 16 0 14 7 11 14 -7z m-108 -9 c4 -8
11 -12 17 -8 6 3 7 1 3 -5 -10 -17 -26 -15 -26 2 0 8 -6 17 -12 19 -10 4 -10
6 0 6 7 1 15 -6 18 -14z m431 -10 c0 -8 -4 -12 -9 -9 -5 3 -6 10 -3 15 9 13
12 11 12 -6z m-89 -25 c13 0 14 2 4 9 -8 5 1 8 25 8 28 1 32 -1 15 -6 -13 -3
-23 -10 -24 -16 0 -5 -5 -8 -11 -6 -7 2 -22 3 -35 3 -19 0 -20 3 -10 15 8 10
14 11 16 4 2 -6 11 -11 20 -11z m4629 -53 c4 -7 0 -8 -11 -4 -10 4 -24 7 -32
7 -8 0 -14 4 -14 9 0 11 49 1 57 -12z m-4446 -44 c12 -16 12 -17 -2 -6 -9 7
-20 9 -24 5 -5 -4 -5 -1 -1 6 9 16 11 15 27 -5z m49 1 c0 -8 -19 -13 -24 -6
-3 5 1 9 9 9 8 0 15 -2 15 -3z m4365 -135 c12 -19 -2 -20 -56 -5 l-54 14 52 1
c28 1 55 -4 58 -10z m-4045 -13 c0 -3 -4 -8 -10 -11 -5 -3 -10 -1 -10 4 0 6 5
11 10 11 6 0 10 -2 10 -4z m-160 -10 c0 -2 -7 -7 -16 -10 -8 -3 -12 -2 -9 4 6
10 25 14 25 6z m340 -7 c0 -13 -28 -18 -33 -6 -3 7 3 13 14 13 11 0 19 -3 19
-7z m3578 -26 c2 -9 -7 -13 -27 -13 -31 0 -42 14 -18 23 19 8 40 3 45 -10z
m-3583 -61 c-3 -3 -11 0 -18 7 -9 10 -8 11 6 5 10 -3 15 -9 12 -12z m558 -55
c7 3 4 -3 -5 -14 -10 -11 -18 -25 -18 -32 0 -19 -60 -92 -71 -86 -5 4 -6 -1
-3 -9 3 -9 -3 -19 -16 -26 -12 -6 -19 -14 -16 -17 3 -4 27 9 54 27 26 19 41
27 35 19 -7 -9 -10 -18 -7 -21 3 -3 -3 -5 -13 -4 -10 0 -17 -5 -16 -11 2 -7
-9 -16 -25 -19 -15 -4 -37 -13 -48 -21 -19 -12 -22 -12 -27 6 -4 15 0 19 14
16 11 -2 17 0 13 6 -3 5 2 22 12 37 10 15 17 31 16 35 -1 5 2 6 8 2 5 -3 10
-1 10 4 0 6 5 11 11 11 5 0 7 -5 3 -12 -4 -7 -3 -8 5 -4 9 6 9 11 0 22 -9 11
-8 14 4 14 9 0 19 5 23 12 5 7 3 8 -5 3 -7 -4 -5 4 4 19 10 14 23 26 31 26 7
0 12 6 10 13 -1 6 -1 9 1 4 3 -4 10 -4 16 0z m-973 -1 c0 -3 -4 -8 -10 -11 -5
-3 -10 -1 -10 4 0 6 5 11 10 11 6 0 10 -2 10 -4z m-56 -41 c-10 -7 -22 -11
-27 -8 -12 7 0 19 23 20 21 2 21 1 4 -12z m556 -44 c0 -6 -4 -12 -8 -15 -5 -3
-9 1 -9 9 0 8 4 15 9 15 4 0 8 -4 8 -9z m800 -91 c-16 -14 -27 -17 -35 -10 -6
5 -16 6 -20 2 -5 -4 -5 -1 -1 6 4 7 12 10 17 7 5 -4 9 -2 9 2 0 5 12 10 27 11
l26 2 -23 -20z m-1110 -26 c0 -8 -5 -12 -10 -9 -6 4 -8 11 -5 16 9 14 15 11
15 -7z m160 12 c0 -3 -4 -8 -10 -11 -5 -3 -10 -1 -10 4 0 6 5 11 10 11 6 0 10
-2 10 -4z m879 0 c-10 -9 -69 -36 -69 -32 0 7 52 35 64 36 5 0 7 -2 5 -4z
m-559 -10 c0 -3 -4 -8 -10 -11 -5 -3 -10 -1 -10 4 0 6 5 11 10 11 6 0 10 -2
10 -4z m140 -52 c-6 -6 -6 -15 -2 -19 4 -5 -1 -5 -12 -1 -14 5 -17 2 -12 -9 3
-8 1 -15 -3 -15 -5 0 -12 6 -14 13 -4 7 -6 6 -6 -5 -1 -9 5 -19 12 -22 6 -3 3
-4 -8 -3 -12 1 -19 -3 -17 -11 2 -13 -9 -10 -35 10 -13 11 -6 41 8 32 5 -3 7
-9 4 -14 -3 -5 -1 -11 4 -14 5 -4 7 7 5 23 -3 16 0 32 5 36 7 4 8 -1 4 -12 -5
-16 -3 -15 14 2 21 22 70 30 53 9z m126 -30 c-20 -14 -20 -14 0 -15 17 -1 17
-2 1 -6 -9 -2 -15 -8 -12 -12 2 -5 -7 -7 -20 -5 -23 2 -35 -10 -16 -18 4 -1 0
-11 -10 -22 -17 -18 -18 -17 -14 10 2 16 4 34 4 41 1 7 8 10 16 7 11 -5 14 -2
9 12 -6 17 -5 17 9 -1 16 -20 16 -20 12 2 -3 17 0 20 12 16 13 -5 15 -2 9 13
-6 16 -5 17 6 6 11 -11 10 -16 -6 -28z m-936 -34 c0 -5 -5 -10 -11 -10 -5 0
-7 5 -4 10 3 6 8 10 11 10 2 0 4 -4 4 -10z m851 -9 c-10 -7 -10 -10 -1 -13 16
-5 -15 -77 -37 -85 -7 -3 -10 -10 -6 -17 4 -7 1 -7 -9 1 -8 7 -18 10 -22 6
-12 -12 -46 -10 -58 4 -8 11 -7 12 6 7 9 -3 16 -2 16 4 0 6 -6 13 -12 15 -10
4 -10 6 -1 6 6 1 14 -3 18 -9 3 -5 13 -6 22 -3 10 4 14 2 10 -4 -3 -5 0 -10 8
-10 11 0 12 4 4 14 -8 9 -8 13 0 13 6 0 11 5 11 10 0 6 -11 3 -25 -6 -15 -10
-25 -12 -25 -5 0 6 7 11 15 11 8 0 15 7 15 15 0 8 6 14 13 13 6 -2 11 3 9 10
-1 8 2 11 7 8 5 -3 14 1 21 9 7 8 18 15 24 15 6 0 5 -4 -3 -9z m-947 -67 c24
-9 19 -22 -6 -20 -13 1 -30 -3 -38 -8 -8 -6 -7 -1 4 12 22 25 19 24 40 16z
m1522 -49 c-11 -8 -22 -12 -25 -9 -6 6 19 24 34 24 6 -1 1 -7 -9 -15z m-41
-14 c-14 -12 -107 -42 -100 -31 3 5 19 11 35 15 16 4 32 11 35 16 4 5 14 9 23
9 9 0 12 -3 7 -9z m-921 -9 c3 -5 -1 -9 -9 -9 -8 0 -12 4 -9 9 3 4 7 8 9 8 2
0 6 -4 9 -8z m1108 -154 c-13 -13 -52 -18 -52 -7 0 5 9 9 21 9 11 0 17 4 14
10 -3 6 1 7 10 4 10 -4 13 -10 7 -16z m-62 -8 c0 -5 -9 -14 -20 -20 -14 -7
-20 -7 -20 0 0 5 7 10 15 10 8 0 15 5 15 10 0 6 2 10 5 10 3 0 5 -4 5 -10z
m474 -309 c-4 -9 -11 -39 -16 -68 -8 -43 -17 -57 -53 -88 -24 -20 -48 -37 -52
-37 -4 -1 -14 -8 -22 -16 -28 -28 -176 -112 -197 -112 -4 0 14 14 39 31 51 34
120 106 164 172 33 51 45 56 55 25 5 -15 6 -7 4 21 -3 30 2 54 16 77 18 30 22
32 44 22 17 -8 23 -16 18 -27z m969 -158 c-3 -61 -9 -108 -13 -108 -1 0 -4
-13 -6 -29 -3 -16 -11 -43 -19 -60 l-13 -31 -2 35 c-4 82 8 238 21 263 8 13
14 15 23 8 8 -7 11 -32 9 -78z"/>
<path d="M1230 5081 c0 -5 7 -12 16 -15 14 -5 15 -4 4 9 -14 17 -20 19 -20 6z"/>
<path d="M1210 5060 c0 -5 5 -10 11 -10 5 0 7 5 4 10 -3 6 -8 10 -11 10 -2 0
-4 -4 -4 -10z"/>
<path d="M1231 5007 c-6 -8 -7 -17 -3 -21 4 -4 7 -12 7 -18 0 -6 8 -12 17 -14
14 -2 15 1 5 17 -6 10 -16 19 -21 19 -4 0 -3 7 4 15 7 8 10 15 7 15 -2 0 -10
-6 -16 -13z"/>
<path d="M1320 4965 c0 -5 5 -17 10 -25 5 -8 10 -10 10 -5 0 6 -5 17 -10 25
-5 8 -10 11 -10 5z"/>
<path d="M932 4611 c4 -13 18 -16 19 -4 0 4 -5 9 -11 12 -7 2 -11 -2 -8 -8z"/>
<path d="M643 3153 c-15 -5 -17 -23 -4 -23 5 0 11 7 15 15 3 8 4 15 3 14 -1 0
-8 -3 -14 -6z"/>
<path d="M2035 2060 c-3 -5 -1 -10 4 -10 6 0 11 5 11 10 0 6 -2 10 -4 10 -3 0
-8 -4 -11 -10z"/>
<path d="M2010 1855 c-7 -8 -10 -21 -7 -29 3 -7 0 -19 -6 -25 -6 -6 -7 -11 -1
-11 5 0 15 9 22 21 8 12 9 18 3 14 -6 -3 -11 0 -11 9 0 8 6 16 13 19 6 2 9 7
6 11 -3 4 -12 0 -19 -9z"/>
<path d="M1679 5553 c-13 -16 -12 -17 4 -4 9 7 17 15 17 17 0 8 -8 3 -21 -13z"/>
<path d="M2176 5543 c-6 -14 -5 -15 5 -6 7 7 10 15 7 18 -3 3 -9 -2 -12 -12z"/>
<path d="M1970 5459 c0 -5 -5 -7 -11 -3 -8 5 -8 1 0 -13 6 -11 8 -23 6 -27 -3
-3 -2 -4 2 -1 7 6 14 55 7 55 -2 0 -4 -5 -4 -11z"/>
<path d="M2145 5440 c-2 -3 5 -7 16 -7 10 -1 19 2 19 6 0 9 -29 10 -35 1z"/>
<path d="M1400 5420 c-9 -6 -10 -10 -3 -10 6 0 15 5 18 10 8 12 4 12 -15 0z"/>
<path d="M2420 5401 c-8 -6 -18 -7 -24 -4 -5 3 -6 1 -2 -5 5 -9 13 -9 27 -2
10 6 19 13 19 15 0 7 -3 6 -20 -4z"/>
<path d="M2652 5320 c0 -14 2 -19 5 -12 2 6 2 18 0 25 -3 6 -5 1 -5 -13z"/>
<path d="M1900 5280 c8 -5 20 -10 25 -10 6 0 3 5 -5 10 -8 5 -19 10 -25 10 -5
0 -3 -5 5 -10z"/>
<path d="M1995 5270 c-3 -6 1 -7 9 -4 18 7 21 14 7 14 -6 0 -13 -4 -16 -10z"/>
<path d="M1047 5259 c7 -7 15 -10 18 -7 3 3 -2 9 -12 12 -14 6 -15 5 -6 -5z"/>
<path d="M1090 5249 c0 -5 5 -7 10 -4 6 3 10 8 10 11 0 2 -4 4 -10 4 -5 0 -10
-5 -10 -11z"/>
<path d="M1517 5189 c7 -7 15 -10 18 -7 3 3 -2 9 -12 12 -14 6 -15 5 -6 -5z"/>
<path d="M3154 5166 c1 -8 5 -18 8 -22 4 -3 5 1 4 10 -1 8 -5 18 -8 22 -4 3
-5 -1 -4 -10z"/>
<path d="M1530 5160 c0 -5 5 -10 11 -10 5 0 7 5 4 10 -3 6 -8 10 -11 10 -2 0
-4 -4 -4 -10z"/>
<path d="M3060 5151 c0 -7 -5 -9 -12 -5 -7 5 -8 3 -3 -5 5 -9 10 -10 18 -2 6
6 8 14 4 18 -4 3 -7 1 -7 -6z"/>
<path d="M3135 5141 c3 -6 2 -11 -3 -11 -5 0 -9 -7 -9 -16 0 -15 1 -15 13 0 8
12 13 14 16 5 3 -8 7 -9 11 -3 3 5 -3 16 -15 23 -11 7 -17 8 -13 2z"/>
<path d="M3475 5139 c-4 -5 -3 -9 2 -8 25 4 35 -1 24 -14 -6 -8 -7 -17 -3 -22
4 -4 -4 -4 -18 -1 -21 6 -22 5 -7 -4 17 -11 16 -13 -3 -37 -23 -30 -27 -51 -5
-33 8 6 14 15 13 18 -1 4 4 17 12 29 10 16 16 19 24 10 6 -7 10 -10 9 -8 -2 2
2 10 9 18 9 11 7 12 -8 7 -16 -6 -17 -5 -6 7 17 19 15 24 -13 37 -16 7 -26 8
-30 1z"/>
<path d="M775 5100 c-3 -5 -1 -10 4 -10 6 0 11 5 11 10 0 6 -2 10 -4 10 -3 0
-8 -4 -11 -10z"/>
<path d="M2875 5081 c-3 -5 -2 -12 3 -15 5 -3 9 1 9 9 0 17 -3 19 -12 6z"/>
<path d="M3425 5080 c-3 -6 1 -7 9 -4 18 7 21 14 7 14 -6 0 -13 -4 -16 -10z"/>
<path d="M951 5067 c2 -2 11 -8 20 -15 12 -9 16 -9 16 1 0 7 -9 14 -20 14 -11
1 -18 1 -16 0z"/>
<path d="M1456 5042 c-2 -4 -1 -14 4 -22 7 -11 9 -9 7 8 -1 24 -3 26 -11 14z"/>
<path d="M2532 5031 c2 -5 -5 -16 -16 -24 -14 -10 -15 -14 -4 -14 20 0 41 34
28 42 -6 4 -9 2 -8 -4z"/>
<path d="M3505 5021 c-6 -11 13 -26 22 -17 4 3 0 6 -8 6 -11 0 -11 2 1 10 9 6
10 10 3 10 -6 0 -14 -4 -18 -9z"/>
<path d="M2483 4968 c1 -15 6 -23 11 -18 4 4 4 16 -2 26 -9 16 -10 14 -9 -8z"/>
<path d="M2846 4982 c-3 -5 1 -9 9 -9 8 0 15 4 15 9 0 4 -4 8 -9 8 -6 0 -12
-4 -15 -8z"/>
<path d="M1475 4960 c-3 -5 -1 -10 4 -10 6 0 11 5 11 10 0 6 -2 10 -4 10 -3 0
-8 -4 -11 -10z"/>
<path d="M1513 4955 c0 -8 4 -12 9 -9 4 3 8 9 8 15 0 5 -4 9 -8 9 -5 0 -9 -7
-9 -15z"/>
<path d="M3775 4941 c-3 -5 -2 -12 3 -15 5 -3 9 1 9 9 0 17 -3 19 -12 6z"/>
<path d="M3750 4909 c-13 -9 -12 -10 3 -5 20 6 22 -4 4 -29 -11 -14 -16 -15
-22 -5 -5 9 -4 11 3 6 7 -4 12 -2 12 4 0 7 -6 10 -12 7 -7 -2 -12 -11 -10 -21
2 -9 -2 -16 -8 -16 -5 0 -10 -5 -10 -12 0 -9 3 -9 12 0 9 9 16 8 28 -3 15 -14
19 -14 30 0 11 13 11 16 0 13 -7 -2 -15 3 -17 10 -3 6 1 10 9 9 7 -2 10 -2 6
0 -5 3 -8 9 -8 14 0 6 5 7 11 3 8 -4 8 0 0 15 -14 24 -12 24 -31 10z"/>
<path d="M725 4879 c-4 -6 -4 -13 -1 -16 3 -4 6 -1 6 6 0 7 5 9 12 5 7 -4 8
-3 4 4 -9 15 -13 15 -21 1z"/>
<path d="M3564 4879 c-4 -7 -3 -9 4 -5 5 3 13 0 15 -6 4 -9 6 -10 6 -1 1 17
-16 25 -25 12z"/>
<path d="M695 4871 c-3 -5 -2 -12 3 -15 5 -3 9 1 9 9 0 17 -3 19 -12 6z"/>
<path d="M3540 4856 c0 -2 9 -6 20 -9 11 -3 18 -1 14 4 -5 9 -34 13 -34 5z"/>
<path d="M3506 4781 c-6 -10 24 -25 32 -16 3 3 0 5 -7 5 -7 0 -9 5 -6 10 3 6
2 10 -4 10 -5 0 -12 -4 -15 -9z"/>
<path d="M629 4763 c-13 -16 -12 -17 4 -4 9 7 17 15 17 17 0 8 -8 3 -21 -13z"/>
<path d="M3345 4771 c-3 -5 -2 -12 3 -15 5 -3 9 1 9 9 0 17 -3 19 -12 6z"/>
<path d="M698 4758 c8 -9 11 -22 7 -27 -4 -7 1 -8 12 -4 16 6 16 5 4 -10 -12
-15 -12 -17 3 -11 18 7 21 20 6 29 -5 3 -8 11 -6 18 1 7 1 8 -2 4 -2 -4 -11
-2 -20 5 -15 12 -16 11 -4 -4z"/>
<path d="M676 4747 c3 -10 9 -15 12 -12 3 3 0 11 -7 18 -10 9 -11 8 -5 -6z"/>
<path d="M3034 4744 c-18 -14 -18 -15 4 -4 12 6 22 13 22 15 0 8 -5 6 -26 -11z"/>
<path d="M3380 4729 c0 -5 5 -7 10 -4 6 3 10 8 10 11 0 2 -4 4 -10 4 -5 0 -10
-5 -10 -11z"/>
<path d="M1120 4720 c-9 -6 -10 -10 -3 -10 6 0 15 5 18 10 8 12 4 12 -15 0z"/>
<path d="M3316 4718 c3 -5 10 -6 15 -3 13 9 11 12 -6 12 -8 0 -12 -4 -9 -9z"/>
<path d="M641 4623 c7 -12 15 -20 18 -17 3 2 -3 12 -13 22 -17 16 -18 16 -5
-5z"/>
<path d="M614 4616 c1 -8 5 -18 8 -22 4 -3 5 1 4 10 -1 8 -5 18 -8 22 -4 3 -5
-1 -4 -10z"/>
<path d="M3391 4607 c-13 -21 -12 -21 5 -5 10 10 16 20 13 22 -3 3 -11 -5 -18
-17z"/>
<path d="M3716 4598 c3 -4 9 -8 15 -8 5 0 9 4 9 8 0 5 -7 9 -15 9 -8 0 -12 -4
-9 -9z"/>
<path d="M3586 4511 c-4 -5 -2 -12 3 -15 5 -4 12 -2 15 3 4 5 2 12 -3 15 -5 4
-12 2 -15 -3z"/>
<path d="M3300 4506 c0 -2 8 -10 18 -17 15 -13 16 -12 3 4 -13 16 -21 21 -21
13z"/>
<path d="M404 4478 l-19 -23 23 19 c21 18 27 26 19 26 -2 0 -12 -10 -23 -22z"/>
<path d="M650 4431 c0 -5 7 -12 16 -15 14 -5 15 -4 4 9 -14 17 -20 19 -20 6z"/>
<path d="M3903 4382 c-9 -6 -7 -11 7 -20 12 -7 21 -8 25 -2 4 6 3 10 -2 9 -20
-3 -27 2 -13 11 8 5 11 10 5 10 -5 0 -15 -4 -22 -8z"/>
<path d="M390 4300 c0 -5 5 -10 10 -10 6 0 10 5 10 10 0 6 -4 10 -10 10 -5 0
-10 -4 -10 -10z"/>
<path d="M335 4291 c-3 -5 -2 -12 3 -15 5 -3 9 1 9 9 0 17 -3 19 -12 6z"/>
<path d="M4721 4243 c7 -10 15 -20 16 -22 2 -2 3 3 3 11 0 9 -7 19 -16 22 -15
6 -15 4 -3 -11z"/>
<path d="M137 4191 c-4 -17 -3 -21 5 -13 5 5 8 16 6 23 -3 8 -7 3 -11 -10z"/>
<path d="M150 4160 c0 -5 5 -12 11 -15 6 -4 8 -14 5 -24 -6 -15 -5 -15 7 0 10
13 15 14 24 3 10 -10 10 -14 0 -17 -9 -4 -9 -6 0 -6 17 -1 29 22 14 27 -9 3
-8 9 3 21 14 15 14 18 1 18 -8 0 -12 -4 -9 -9 3 -4 -2 -8 -11 -8 -9 0 -14 4
-11 8 2 4 -4 9 -15 9 -10 1 -19 -2 -19 -7z"/>
<path d="M471 4014 c6 -7 16 -11 21 -8 11 7 3 17 -18 20 -12 2 -13 -1 -3 -12z"/>
<path d="M510 3836 c0 -8 7 -17 16 -20 23 -9 24 -4 2 17 -14 13 -18 14 -18 3z"/>
<path d="M233 3803 c0 -9 4 -10 14 -2 7 6 13 12 13 14 0 1 -6 2 -13 2 -8 0
-14 -6 -14 -14z"/>
<path d="M335 3801 c-3 -5 -2 -12 3 -15 5 -3 9 1 9 9 0 17 -3 19 -12 6z"/>
<path d="M230 3765 c-13 -14 -22 -27 -19 -29 2 -2 14 10 27 25 29 36 24 38 -8
4z"/>
<path d="M176 3762 c-3 -5 1 -9 9 -9 8 0 12 4 9 9 -3 4 -7 8 -9 8 -2 0 -6 -4
-9 -8z"/>
<path d="M236 3741 c-3 -5 1 -11 9 -14 9 -4 12 -1 8 9 -6 16 -10 17 -17 5z"/>
<path d="M275 3710 c-3 -5 -1 -10 4 -10 6 0 11 5 11 10 0 6 -2 10 -4 10 -3 0
-8 -4 -11 -10z"/>
<path d="M435 3480 c3 -5 8 -10 11 -10 2 0 4 5 4 10 0 6 -5 10 -11 10 -5 0 -7
-4 -4 -10z"/>
<path d="M410 3441 c0 -5 7 -12 16 -15 14 -5 15 -4 4 9 -14 17 -20 19 -20 6z"/>
<path d="M451 3424 c0 -11 3 -14 6 -6 3 7 2 16 -1 19 -3 4 -6 -2 -5 -13z"/>
<path d="M560 3420 c-8 -5 -12 -12 -9 -15 4 -3 12 1 19 10 14 17 11 19 -10 5z"/>
<path d="M590 3416 c0 -2 8 -10 18 -17 15 -13 16 -12 3 4 -13 16 -21 21 -21
13z"/>
<path d="M710 3410 c0 -5 5 -10 11 -10 5 0 7 5 4 10 -3 6 -8 10 -11 10 -2 0
-4 -4 -4 -10z"/>
<path d="M593 3375 c0 -8 4 -12 9 -9 5 3 6 10 3 15 -9 13 -12 11 -12 -6z"/>
<path d="M614 3358 c-4 -7 -3 -8 4 -4 7 4 13 2 13 -3 1 -6 3 -15 4 -21 1 -5 3
-13 4 -17 0 -3 9 1 19 10 10 10 22 14 25 10 4 -3 7 -1 7 6 0 6 -6 11 -12 9 -7
-1 -23 3 -35 10 -16 9 -24 9 -29 0z m41 -17 c3 -5 2 -12 -3 -15 -5 -3 -9 1 -9
9 0 17 3 19 12 6z"/>
<path d="M706 3342 c-3 -5 1 -9 9 -9 8 0 12 4 9 9 -3 4 -7 8 -9 8 -2 0 -6 -4
-9 -8z"/>
<path d="M635 3260 c3 -5 8 -10 11 -10 2 0 4 5 4 10 0 6 -5 10 -11 10 -5 0 -7
-4 -4 -10z"/>
<path d="M353 3125 c0 -8 4 -12 9 -9 5 3 6 10 3 15 -9 13 -12 11 -12 -6z"/>
<path d="M446 3132 c-3 -5 1 -9 9 -9 8 0 12 4 9 9 -3 4 -7 8 -9 8 -2 0 -6 -4
-9 -8z"/>
<path d="M726 2942 c-3 -5 1 -9 9 -9 8 0 12 4 9 9 -3 4 -7 8 -9 8 -2 0 -6 -4
-9 -8z"/>
<path d="M560 2857 c-12 -21 -12 -21 6 -7 10 8 20 15 22 16 2 1 -1 4 -5 7 -5
3 -15 -4 -23 -16z"/>
<path d="M520 2840 c-13 -8 -12 -10 3 -10 9 0 17 5 17 10 0 12 -1 12 -20 0z"/>
<path d="M940 2770 c-9 -6 -10 -10 -3 -10 6 0 15 5 18 10 8 12 4 12 -15 0z"/>
<path d="M720 2691 c0 -7 -5 -9 -12 -5 -7 5 -8 3 -3 -5 5 -9 10 -10 18 -2 6 6
8 14 4 18 -4 3 -7 1 -7 -6z"/>
<path d="M336 2682 c-3 -5 1 -9 9 -9 8 0 12 4 9 9 -3 4 -7 8 -9 8 -2 0 -6 -4
-9 -8z"/>
<path d="M400 2670 c0 -5 -7 -7 -15 -4 -8 4 -15 2 -15 -4 0 -14 33 -8 38 6 2
7 1 12 -2 12 -3 0 -6 -4 -6 -10z"/>
<path d="M670 2545 c0 -5 5 -17 10 -25 5 -8 10 -10 10 -5 0 6 -5 17 -10 25 -5
8 -10 11 -10 5z"/>
<path d="M716 2502 c-3 -5 1 -9 9 -9 8 0 12 4 9 9 -3 4 -7 8 -9 8 -2 0 -6 -4
-9 -8z"/>
<path d="M1275 2420 c4 -6 11 -8 16 -5 14 9 11 15 -7 15 -8 0 -12 -5 -9 -10z"/>
<path d="M1380 2395 c-11 -13 -10 -14 4 -9 9 3 16 10 16 15 0 13 -6 11 -20 -6z"/>
<path d="M1315 2340 c-3 -5 -1 -10 4 -10 6 0 11 5 11 10 0 6 -2 10 -4 10 -3 0
-8 -4 -11 -10z"/>
<path d="M1351 2327 c-13 -21 -12 -21 5 -5 10 10 16 20 13 22 -3 3 -11 -5 -18
-17z"/>
<path d="M1530 2280 c0 -5 5 -10 11 -10 5 0 7 5 4 10 -3 6 -8 10 -11 10 -2 0
-4 -4 -4 -10z"/>
<path d="M1659 2274 c-16 -20 7 -25 25 -5 14 15 14 18 1 18 -8 0 -20 -6 -26
-13z"/>
<path d="M1910 2266 c0 -2 7 -7 16 -10 8 -3 12 -2 9 4 -6 10 -25 14 -25 6z"/>
<path d="M1415 2230 c-3 -5 -3 -10 2 -11 4 0 -1 -4 -12 -9 l-20 -9 20 -1 c20
-1 20 -1 1 -15 -21 -16 -10 -21 13 -6 7 5 11 13 7 19 -3 6 -1 14 5 18 7 4 9 3
5 -4 -3 -6 -2 -13 4 -17 15 -10 12 21 -4 34 -10 8 -16 9 -21 1z"/>
<path d="M1600 2210 c-9 -6 -10 -10 -3 -10 6 0 15 5 18 10 8 12 4 12 -15 0z"/>
<path d="M1790 2179 c0 -5 5 -7 10 -4 6 3 10 8 10 11 0 2 -4 4 -10 4 -5 0 -10
-5 -10 -11z"/>
<path d="M1510 2160 c0 -5 5 -10 11 -10 5 0 7 5 4 10 -3 6 -8 10 -11 10 -2 0
-4 -4 -4 -10z"/>
<path d="M1880 2100 c-9 -6 -10 -10 -3 -10 6 0 15 5 18 10 8 12 4 12 -15 0z"/>
<path d="M1806 1993 c-6 -14 -5 -15 5 -6 7 7 10 15 7 18 -3 3 -9 -2 -12 -12z"/>
<path d="M1695 1869 c-4 -6 -5 -12 -2 -15 2 -3 7 2 10 11 7 17 1 20 -8 4z"/>
<path d="M985 1761 c-3 -5 -2 -12 3 -15 5 -3 9 1 9 9 0 17 -3 19 -12 6z"/>
<path d="M936 1738 c3 -4 12 -8 20 -8 8 0 14 4 14 8 0 4 -9 8 -19 8 -11 0 -17
-4 -15 -8z"/>
<path d="M1756 1684 c-3 -9 -1 -12 4 -9 6 3 10 1 10 -4 0 -6 -6 -11 -12 -11
-9 0 -8 -4 2 -10 10 -7 12 -12 4 -17 -16 -11 -37 -54 -29 -61 3 -3 8 4 12 17
3 13 11 20 19 17 9 -3 11 0 7 12 -6 15 -5 16 13 2 15 -11 16 -11 7 0 -20 22
-15 32 10 20 22 -11 22 -11 2 5 -11 9 -19 19 -18 23 0 4 -5 12 -12 19 -10 10
-14 9 -19 -3z"/>
<path d="M1750 1559 c0 -5 5 -7 10 -4 6 3 10 8 10 11 0 2 -4 4 -10 4 -5 0 -10
-5 -10 -11z"/>
<path d="M4215 291 c-3 -5 -2 -12 3 -15 5 -3 9 1 9 9 0 17 -3 19 -12 6z"/>
</g>
</svg>
